<?xml version="1.0" standalone="no"?>
<!DOCTYPE svg PUBLIC "-//W3C//DTD SVG 20010904//EN"
 "http://www.w3.org/TR/2001/REC-SVG-20010904/DTD/svg10.dtd">
<svg version="1.0" xmlns="http://www.w3.org/2000/svg"
 width="2610.000000pt" height="1600.000000pt" viewBox="0 0 2610.000000 1600.000000"
 preserveAspectRatio="xMidYMid meet">

<g transform="translate(0.000000,1600.000000) scale(0.100000,-0.100000)"
fill="#000000" stroke="none">
<path d="M3625 14823 c-72 -151 -110 -408 -102 -688 7 -254 24 -313 171 -609
111 -223 206 -467 206 -529 0 -18 -15 -38 -52 -71 -49 -41 -52 -46 -37 -61 9
-9 56 -25 105 -36 110 -25 240 -77 308 -124 29 -20 102 -84 163 -143 111 -107
191 -179 270 -240 23 -18 58 -60 78 -93 26 -42 61 -78 119 -123 113 -88 163
-145 171 -193 4 -21 14 -69 22 -108 20 -94 20 -100 5 -97 -19 4 -70 -26 -82
-48 -16 -29 -26 -25 -86 29 -68 63 -152 111 -193 111 -17 0 -31 -3 -31 -8 0
-4 19 -30 41 -57 98 -118 130 -184 175 -352 55 -209 80 -458 66 -660 l-8 -131
-38 -42 c-59 -66 -158 -136 -201 -143 -89 -15 -238 -131 -328 -258 -58 -83
-181 -321 -212 -414 -28 -82 -46 -175 -34 -175 4 0 38 46 75 103 130 199 251
330 352 381 84 43 313 72 373 48 l27 -11 7 -333 c9 -428 5 -576 -16 -609 -13
-19 -17 -59 -21 -184 -3 -129 -8 -167 -22 -195 -30 -57 -111 -162 -165 -213
-28 -27 -51 -54 -51 -61 0 -8 16 -26 35 -40 26 -20 35 -34 35 -57 0 -26 -20
-50 -128 -157 -149 -147 -195 -206 -250 -317 -94 -191 -121 -299 -129 -520 -5
-129 -2 -177 11 -245 30 -150 124 -361 198 -445 41 -47 58 -54 76 -32 8 9 5
28 -12 67 -64 150 -93 321 -81 470 23 294 164 549 380 688 86 55 271 153 344
182 96 37 570 128 593 114 19 -12 -3 -156 -38 -258 -55 -160 -43 -184 47 -93
73 73 141 182 184 292 40 102 69 136 148 176 61 31 220 142 307 216 159 132
272 291 336 473 12 36 29 82 37 104 8 22 12 58 9 85 -2 25 -6 375 -7 776 -5
1408 -18 1685 -89 1840 -45 98 -216 295 -331 380 -94 71 -150 130 -174 186
-19 46 -56 83 -72 73 -5 -3 -14 -23 -21 -45 -6 -23 -18 -43 -25 -46 -16 -6
-53 4 -273 70 -140 43 -157 50 -243 105 -71 47 -72 47 -251 317 -122 183 -120
179 -121 443 0 122 -3 222 -7 222 -12 0 -56 -93 -84 -177 -19 -60 -26 -108
-31 -204 -7 -144 12 -259 71 -440 19 -57 32 -107 30 -111 -7 -10 -50 0 -96 23
-21 11 -48 19 -61 19 -14 0 -30 7 -38 16 -7 8 -29 24 -49 34 -39 20 -144 126
-208 212 -23 29 -55 62 -73 72 -32 19 -32 19 -49 -4 l-18 -23 -53 22 c-61 26
-181 114 -246 181 -54 54 -153 202 -218 325 -26 50 -55 99 -64 111 -193 253
-226 311 -282 501 -12 38 -24 120 -29 183 -5 63 -14 183 -20 265 -8 106 -9
177 -2 240 6 50 7 94 3 98 -5 5 -16 -9 -26 -30z m1970 -2924 c155 -45 262 -84
317 -116 194 -114 273 -241 286 -462 10 -170 3 -1951 -8 -2050 -12 -109 -45
-175 -124 -255 -91 -92 -184 -153 -264 -172 -37 -9 -118 -34 -180 -55 -63 -22
-118 -36 -123 -33 -12 7 -11 104 2 181 8 44 23 82 52 126 69 106 93 176 67
192 -6 4 -27 -3 -46 -14 -19 -12 -41 -21 -49 -21 -32 0 -45 79 -25 149 5 20
10 473 12 1150 l2 1116 -36 107 c-20 58 -44 120 -53 137 -9 18 -13 36 -9 42 8
14 86 5 179 -22z"/>
<path d="M22737 14612 c-8 -306 -35 -531 -78 -642 -33 -87 -89 -185 -172 -303
-64 -90 -171 -256 -232 -357 -61 -102 -148 -211 -204 -255 -28 -22 -85 -59
-127 -83 -62 -34 -83 -41 -109 -36 -39 7 -108 -25 -126 -59 -42 -77 -147 -161
-320 -256 -79 -42 -136 -54 -125 -26 15 41 58 191 78 275 32 140 30 314 -6
430 -14 47 -40 110 -58 140 l-33 55 -6 -185 c-8 -265 -17 -294 -162 -517 -46
-70 -96 -149 -111 -176 -60 -102 -313 -219 -577 -266 -94 -17 -289 -59 -324
-71 -54 -18 -51 -36 9 -71 88 -49 142 -103 178 -177 45 -95 49 -198 14 -382
-41 -220 -86 -493 -111 -680 -13 -96 -35 -224 -49 -285 -14 -60 -35 -152 -47
-204 -12 -51 -31 -123 -43 -160 l-21 -66 -111 -55 c-143 -71 -173 -95 -249
-197 -104 -142 -181 -327 -173 -420 5 -56 27 -48 69 27 52 92 147 199 211 238
41 24 71 34 121 39 l67 6 16 -39 c14 -32 14 -47 5 -84 -6 -25 -13 -70 -17
-100 -3 -30 -23 -143 -44 -250 -22 -107 -44 -235 -50 -285 -25 -203 -30 -236
-44 -258 -8 -12 -20 -42 -26 -67 -7 -25 -22 -67 -34 -95 -13 -27 -33 -81 -45
-118 -25 -75 -40 -89 -119 -112 -51 -15 -70 -30 -57 -43 4 -4 86 -5 183 -4
104 2 211 -1 258 -8 62 -9 95 -9 137 -1 50 11 65 9 168 -18 154 -40 217 -48
225 -27 3 8 -3 28 -14 43 -10 15 -34 62 -53 103 l-34 75 2 187 c1 102 6 222
13 265 25 179 53 342 61 354 6 11 30 9 121 -10 148 -30 542 -128 582 -145 29
-12 34 -21 55 -97 17 -60 26 -131 32 -254 6 -93 14 -201 19 -240 8 -64 6 -74
-16 -115 -75 -142 -78 -151 -68 -167 5 -8 43 -25 84 -37 145 -43 219 -100 330
-255 178 -249 237 -435 245 -773 4 -121 1 -191 -10 -253 -17 -97 -72 -298
-111 -407 -27 -74 -120 -222 -227 -361 -61 -78 -68 -101 -22 -77 190 102 493
544 593 865 45 143 74 361 79 595 6 231 -6 360 -40 433 -33 71 -64 175 -82
277 -10 58 -30 115 -62 180 -58 119 -79 187 -98 320 -9 58 -25 152 -37 210
-11 58 -22 116 -25 130 -3 14 -15 70 -28 125 -45 188 -123 700 -111 730 6 16
16 17 99 12 92 -6 124 -14 249 -60 109 -41 170 -87 245 -184 125 -160 188
-236 201 -241 30 -10 -27 178 -94 312 -52 102 -80 145 -187 278 -111 140 -163
176 -427 302 -41 20 -96 49 -121 65 -44 28 -47 33 -64 103 -50 214 -88 489
-83 609 l4 95 59 100 c33 54 70 113 82 130 13 17 23 38 23 47 0 23 -38 22 -75
-3 -16 -11 -48 -25 -70 -31 -22 -5 -48 -12 -57 -15 -27 -8 -40 38 -39 134 1
103 18 209 39 242 23 37 234 261 412 437 274 272 409 359 636 413 51 11 100
28 110 36 21 16 25 11 -60 77 -20 15 -36 36 -36 46 0 56 98 316 205 541 106
224 154 375 176 553 25 213 -35 625 -111 749 -16 27 -17 21 -23 -220z m-1897
-3213 c11 -43 34 -170 50 -281 17 -112 39 -248 50 -303 10 -55 22 -120 25
-145 11 -92 76 -539 95 -655 11 -66 30 -146 41 -178 11 -32 18 -61 15 -64 -7
-8 -45 4 -314 96 -128 43 -239 84 -247 91 -21 17 -19 62 10 203 13 67 34 199
45 292 11 94 26 195 34 225 8 30 31 163 51 295 44 294 62 400 82 487 16 66 16
67 30 41 7 -14 22 -61 33 -104z"/>
<path d="M10401 13238 c-6 -29 -16 -108 -22 -175 -14 -142 -3 -259 38 -418 45
-172 56 -191 241 -408 55 -65 103 -129 107 -144 4 -18 -1 -36 -19 -62 -15 -21
-26 -45 -26 -55 0 -15 5 -17 33 -12 86 17 129 18 154 5 56 -30 208 -262 241
-369 15 -48 22 -406 8 -420 -5 -5 -25 -10 -42 -10 -18 0 -35 -4 -38 -9 -3 -5
3 -35 15 -67 42 -124 60 -203 69 -321 9 -103 8 -133 -6 -194 -14 -62 -15 -81
-4 -128 13 -59 14 -193 11 -1179 -2 -491 -3 -505 -26 -592 -12 -49 -31 -104
-42 -122 -10 -18 -55 -58 -98 -88 -43 -30 -78 -59 -78 -65 0 -5 36 -20 79 -32
77 -21 80 -23 160 -110 90 -96 127 -160 180 -310 36 -105 87 -324 104 -448 13
-102 28 -157 41 -153 12 4 39 80 64 178 9 36 21 79 26 95 5 17 27 97 49 178
67 246 149 341 335 388 25 6 45 17 45 24 0 7 -38 50 -84 96 -153 154 -177 242
-178 654 -1 508 0 543 22 565 18 18 56 31 310 106 174 52 329 124 467 217 73
48 148 107 168 130 67 78 151 286 174 432 6 39 13 253 15 478 3 251 9 414 16
426 16 30 13 43 -26 128 -20 43 -45 100 -56 128 -56 143 -145 267 -226 316
-20 13 -62 42 -92 65 -119 91 -230 123 -540 154 -118 11 -226 24 -240 27 -41
10 -76 30 -138 82 -113 94 -209 277 -242 461 -19 107 -20 112 -33 107 -11 -3
-16 -20 -38 -117 -6 -25 -11 -97 -12 -160 -2 -108 0 -121 32 -213 19 -53 31
-100 27 -104 -12 -12 -127 27 -246 84 -41 20 -112 53 -157 74 -45 21 -103 57
-129 81 -81 74 -161 212 -244 423 -56 141 -66 173 -94 319 -12 60 -27 111 -33
113 -7 3 -16 -17 -22 -49z m1531 -1643 c165 -35 263 -76 297 -124 79 -110 128
-350 91 -445 -7 -21 -7 -45 1 -86 7 -35 9 -131 7 -251 -5 -219 -13 -252 -88
-354 -53 -71 -78 -88 -227 -146 -71 -28 -142 -58 -159 -69 -17 -10 -50 -21
-72 -25 l-40 -6 -6 83 c-8 112 9 517 25 596 11 54 11 65 -1 72 -13 8 -16 69
-18 375 -3 274 -1 370 8 381 16 19 89 18 182 -1z m718 -236 c0 -11 -3 -11 -24
-3 -23 9 -20 23 4 17 11 -3 20 -9 20 -14z m-820 -1313 c0 -3 -4 -8 -10 -11 -5
-3 -10 -1 -10 4 0 6 5 11 10 11 6 0 10 -2 10 -4z"/>
<path d="M16274 13078 c14 -93 18 -309 6 -377 -19 -116 -85 -233 -190 -339
-57 -57 -92 -82 -113 -82 -26 0 -147 88 -243 177 -52 49 -100 90 -106 92 -29
10 52 -170 138 -307 25 -40 43 -79 41 -86 -8 -21 -95 -62 -208 -98 l-104 -33
-322 1 c-259 0 -325 3 -338 14 -15 12 -16 27 -10 112 4 56 3 98 -2 98 -15 0
-44 -31 -107 -113 -32 -43 -75 -87 -94 -99 -42 -26 -55 -26 -367 -14 -198 7
-240 12 -304 32 -41 13 -77 22 -79 19 -3 -2 12 -29 32 -59 20 -30 39 -63 44
-73 4 -10 24 -48 45 -85 30 -53 39 -82 47 -148 9 -80 24 -428 39 -940 5 -167
12 -264 20 -281 16 -32 -1 -71 -60 -144 -45 -55 -73 -111 -66 -130 3 -6 27
-22 54 -35 117 -55 153 -112 159 -254 3 -56 11 -166 19 -246 27 -286 38 -637
24 -755 -19 -149 -31 -220 -45 -262 -21 -59 -104 -193 -187 -301 -115 -150
-155 -210 -177 -270 -23 -60 -40 -145 -40 -199 0 -29 2 -32 22 -24 13 4 49 47
81 94 55 80 210 242 270 282 15 10 49 22 74 26 26 5 69 25 97 43 55 38 130 56
227 56 82 0 101 -10 166 -91 96 -119 101 -124 110 -116 4 5 10 50 13 100 l5
92 150 8 c83 4 222 6 310 4 149 -3 167 -6 255 -36 115 -39 312 -132 440 -208
125 -74 151 -94 238 -177 53 -50 76 -66 84 -58 13 13 3 30 -85 147 -61 80
-150 184 -371 430 -67 75 -128 153 -144 185 l-27 55 -8 320 c-4 176 -9 326
-12 332 -10 29 -38 -6 -88 -111 -30 -61 -58 -122 -62 -136 -4 -14 -24 -51 -44
-82 -31 -49 -48 -64 -116 -100 l-80 -43 -305 0 c-168 0 -313 3 -323 7 -16 7
-17 40 -15 550 l3 543 40 7 c22 4 85 8 141 10 123 4 138 -4 128 -67 -7 -53 9
-87 39 -83 15 2 40 33 83 102 46 74 86 121 159 189 53 50 126 127 162 171 69
86 157 251 151 287 -3 20 -7 19 -58 -23 -30 -24 -72 -54 -93 -66 -38 -22 -168
-49 -186 -38 -5 3 -116 8 -248 11 -313 7 -319 8 -327 47 -10 51 -7 931 4 948
8 13 51 15 287 15 261 0 282 -1 350 -23 130 -41 175 -90 297 -327 82 -158 92
-173 108 -157 18 18 21 147 5 292 -18 172 -9 339 23 423 23 60 91 138 174 199
65 47 76 41 126 -64 40 -85 44 -101 48 -185 4 -83 2 -94 -19 -122 -23 -31 -23
-31 -5 -88 25 -79 34 -211 41 -643 7 -465 -2 -555 -65 -659 -21 -37 -57 -86
-79 -111 -22 -25 -46 -60 -52 -79 -15 -45 4 -63 75 -69 50 -4 57 -8 80 -41 30
-44 32 -67 41 -421 11 -408 -14 -562 -106 -662 -27 -29 -47 -57 -46 -63 2 -5
27 -22 56 -37 28 -14 71 -42 94 -60 23 -19 87 -66 142 -105 105 -75 293 -259
383 -375 29 -36 67 -79 85 -95 35 -31 125 -77 170 -88 43 -11 38 8 -38 125
-75 116 -113 219 -154 415 -32 157 -42 273 -35 422 3 76 6 314 7 528 2 368 3
392 22 430 17 34 28 43 73 58 30 9 87 20 127 24 l73 6 30 -41 c41 -57 44 -66
116 -352 35 -141 89 -323 119 -405 120 -332 137 -413 144 -701 7 -296 2 -325
-89 -519 -76 -163 -85 -189 -69 -199 38 -24 195 128 336 324 134 187 315 356
445 416 104 48 105 48 108 72 2 14 -16 41 -59 87 -34 36 -68 74 -75 83 -38 54
-186 472 -263 742 -12 41 -31 97 -43 125 -11 27 -47 126 -79 220 -32 93 -74
213 -93 265 -20 52 -36 103 -36 112 0 9 20 34 45 54 48 40 184 194 223 251 71
104 122 342 122 568 0 295 -49 538 -136 677 -15 23 -63 78 -108 122 -88 88
-172 142 -346 222 -58 26 -109 51 -114 55 -13 11 45 125 94 187 39 48 134 132
150 132 4 0 23 -24 41 -52 19 -29 79 -100 134 -158 339 -357 393 -418 416
-477 22 -55 24 -75 29 -345 5 -314 8 -326 57 -298 17 10 43 48 72 106 54 108
151 238 195 262 26 14 59 17 193 17 89 0 165 -4 170 -8 4 -5 9 -110 11 -233 3
-214 2 -226 -17 -251 -26 -32 -26 -51 -1 -161 17 -80 20 -143 26 -658 3 -346
2 -601 -4 -650 -9 -79 -53 -189 -113 -282 -12 -18 -19 -36 -15 -39 3 -3 30 2
60 11 31 10 60 15 66 11 7 -5 9 -31 5 -78 -32 -380 -43 -425 -126 -531 -22
-27 -39 -59 -39 -73 0 -31 35 -63 119 -109 117 -65 263 -176 391 -299 235
-225 433 -372 573 -427 162 -64 417 -122 432 -98 3 5 -34 28 -82 51 -93 44
-205 115 -288 183 -200 162 -234 208 -298 392 -77 223 -90 304 -119 759 -13
199 -14 262 -10 435 1 58 0 169 -3 248 -7 159 8 275 66 515 17 70 28 134 25
142 -3 10 -19 15 -46 15 l-41 0 3 559 c2 308 7 563 11 567 12 13 235 17 322 6
77 -10 81 -12 121 -55 22 -25 71 -105 108 -179 72 -142 104 -185 130 -175 19
7 22 111 6 217 -5 36 -12 180 -16 320 l-6 256 32 82 c33 85 34 117 3 108 -10
-3 -74 -13 -143 -22 -95 -13 -213 -17 -497 -18 l-372 -1 -55 54 c-30 29 -62
69 -72 87 -10 19 -22 34 -26 34 -3 0 -14 -34 -23 -75 -25 -113 -26 -114 -175
-116 -241 -4 -366 13 -570 78 -81 26 -140 53 -200 90 -47 30 -161 100 -255
158 -93 57 -171 110 -173 118 -2 9 35 39 100 80 170 106 213 124 368 154 162
31 169 45 26 51 -128 6 -326 -22 -452 -63 -201 -66 -409 -189 -534 -316 -41
-42 -95 -90 -120 -106 -25 -17 -61 -47 -80 -67 -59 -62 -151 -72 -291 -31 -46
13 -92 25 -101 25 -10 0 -18 1 -18 3 0 2 18 37 39 78 117 221 153 402 116 577
-25 119 -54 183 -106 235 -26 26 -51 47 -54 47 -4 0 -4 -19 -1 -42z m-1691
-1118 c4 -15 0 -20 -15 -20 -16 0 -18 3 -9 13 6 8 8 17 4 20 -3 4 -2 7 4 7 6
0 13 -9 16 -20z m370 -7 c-7 -2 -21 -2 -30 0 -10 3 -4 5 12 5 17 0 24 -2 18
-5z m1923 -353 c130 -23 203 -51 255 -98 72 -65 84 -119 94 -420 7 -231 -19
-363 -91 -457 -32 -42 -134 -105 -184 -112 -19 -4 -60 -17 -90 -30 -103 -46
-213 -84 -228 -78 -11 4 -13 26 -10 105 3 98 4 100 59 207 84 162 85 213 4
163 -20 -12 -38 -21 -40 -18 -2 2 -6 165 -9 362 -4 255 -2 363 5 373 14 16
148 18 235 3z m-726 -1730 c0 -5 -4 -10 -9 -10 -6 0 -13 5 -16 10 -3 6 1 10 9
10 9 0 16 -4 16 -10z"/>
<path d="M24306 12948 c-2 -7 -6 -24 -9 -38 -2 -14 -12 -59 -20 -100 -27 -123
-91 -524 -103 -640 -3 -36 -15 -87 -25 -115 -22 -60 -74 -126 -93 -119 -8 3
-33 32 -56 65 -23 32 -45 59 -50 59 -19 0 -23 -56 -11 -125 26 -144 30 -242
29 -715 -1 -267 5 -630 12 -807 17 -402 12 -454 -65 -679 -29 -88 -56 -167
-60 -176 -6 -16 -1 -18 56 -15 l64 2 -3 -135 c-3 -129 6 -389 29 -865 13 -256
12 -786 0 -798 -5 -5 -36 5 -72 22 -66 32 -99 39 -99 20 0 -6 16 -37 35 -69
19 -32 35 -61 35 -65 0 -4 24 -44 54 -89 50 -76 54 -87 65 -171 21 -175 32
-647 18 -815 -7 -86 -17 -161 -21 -168 -4 -7 -19 -12 -33 -10 -16 2 -30 -4
-37 -15 -9 -14 -4 -30 25 -85 l36 -67 7 -245 c7 -255 1 -359 -35 -640 -11 -85
-23 -200 -26 -255 -7 -118 0 -131 66 -120 31 5 51 19 93 63 30 31 64 79 77
105 13 26 41 62 64 80 22 18 54 47 71 66 100 109 96 106 184 125 108 23 126
39 118 110 -50 400 -56 563 -45 1251 10 666 15 746 55 899 l29 109 55 25 c30
13 100 42 155 64 125 50 150 65 135 83 -13 16 -60 23 -220 30 -146 8 -171 19
-182 81 -4 21 -7 188 -8 369 0 249 5 395 20 595 15 185 23 416 29 765 7 447
10 504 25 534 16 31 21 33 54 27 20 -3 74 -24 121 -47 89 -43 154 -59 165 -41
4 6 -41 61 -99 122 -129 137 -162 178 -205 255 -30 54 -34 70 -38 155 -2 52 3
163 12 245 8 83 20 231 26 330 13 203 32 320 62 378 11 22 64 87 119 144 54
57 99 111 99 119 0 8 -1 14 -3 14 -2 0 -59 -25 -128 -55 -166 -74 -181 -76
-251 -31 -118 75 -148 139 -202 431 -8 44 -22 157 -31 250 -24 240 -38 328
-52 333 -7 2 -15 -2 -17 -10z"/>
<path d="M2061 12898 c-6 -29 -15 -98 -21 -153 -27 -257 -38 -331 -76 -525
-19 -96 -65 -191 -112 -230 -51 -42 -112 -70 -153 -70 -32 0 -188 53 -250 86
-65 33 -52 8 52 -101 74 -78 98 -111 131 -183 l40 -87 19 -280 c10 -154 23
-320 29 -370 30 -275 7 -330 -267 -627 -66 -71 -88 -108 -65 -108 13 0 125 47
189 79 32 16 75 33 96 36 36 7 38 6 54 -31 12 -29 17 -79 20 -189 2 -82 8
-330 13 -550 6 -220 18 -485 27 -590 12 -137 17 -288 16 -540 0 -478 0 -477
-168 -489 -55 -4 -107 -7 -115 -7 -8 0 -34 -2 -57 -5 -33 -4 -43 -9 -43 -24 0
-14 27 -29 113 -65 212 -89 197 -76 234 -201 21 -71 36 -149 42 -224 15 -163
24 -1445 11 -1545 -23 -184 -40 -392 -35 -416 9 -40 32 -56 120 -79 81 -22 99
-35 144 -98 12 -18 47 -51 77 -72 30 -23 65 -60 80 -88 65 -112 152 -187 211
-180 l28 3 -1 85 c0 47 -11 186 -24 310 -18 180 -23 287 -24 540 -2 320 0 333
38 423 16 37 16 38 -7 46 -12 5 -28 15 -34 23 -19 23 -30 344 -21 658 10 389
15 437 51 483 15 20 45 73 67 118 31 63 37 86 29 100 -9 18 -12 18 -47 3 -68
-30 -70 -29 -78 12 -8 45 1 617 17 1014 6 157 12 389 13 517 1 139 5 236 11
242 7 7 25 6 53 -1 25 -6 47 -7 52 -2 5 5 -4 39 -21 79 -80 185 -108 328 -109
545 0 135 11 248 37 375 14 73 15 114 2 450 -14 377 -17 887 -5 966 3 25 2 51
-4 59 -9 12 -18 7 -51 -32 -23 -27 -48 -48 -56 -48 -24 0 -79 137 -107 270
-58 273 -65 308 -70 380 -5 64 -42 268 -62 338 -10 36 -22 26 -33 -30z m-364
-4964 c-3 -3 -12 -4 -19 -1 -8 3 -5 6 6 6 11 1 17 -2 13 -5z"/>
<path d="M23039 12914 c-16 -40 -54 -231 -74 -366 -48 -335 -84 -505 -136
-648 -23 -61 -56 -120 -69 -120 -4 0 -31 24 -59 53 -40 41 -53 49 -60 38 -5
-8 -7 -88 -4 -180 6 -183 -1 -289 -22 -318 -13 -17 -18 -16 -103 30 -50 26
-93 47 -96 47 -14 0 -4 -24 23 -50 38 -39 103 -167 136 -270 27 -84 27 -91 36
-465 7 -298 13 -412 30 -530 19 -135 21 -177 15 -430 -20 -916 -18 -1212 15
-1645 33 -443 30 -528 -22 -658 l-23 -55 33 -27 32 -27 11 -159 c6 -88 12
-244 12 -349 1 -178 0 -193 -21 -236 -29 -57 -29 -65 1 -100 21 -25 25 -42 31
-156 16 -263 -7 -579 -56 -786 -25 -105 -22 -113 59 -123 71 -8 99 -20 187
-77 150 -99 143 -92 161 -152 19 -69 57 -114 129 -154 64 -36 101 -40 110 -11
8 24 0 102 -23 225 -14 76 -17 165 -17 585 l0 495 29 74 30 73 -25 46 -24 46
-1 626 c0 344 -4 655 -8 691 -8 64 -8 66 38 153 25 48 46 95 46 104 0 9 -14
60 -31 112 l-31 95 5 285 c5 264 26 647 62 1135 8 110 15 244 15 298 0 218 31
354 124 547 58 119 43 141 -47 70 -28 -22 -55 -39 -61 -37 -7 2 -13 80 -18
223 -12 380 -12 467 2 544 7 41 14 127 14 191 1 131 2 129 -82 191 -105 78
-143 160 -172 367 -20 148 -20 155 -51 536 -11 143 -25 264 -29 269 -6 6 -14
-3 -21 -20z"/>
<path d="M3336 12862 c-8 -13 -14 -68 -26 -232 -19 -256 -42 -483 -55 -555
-28 -145 -82 -249 -163 -312 -78 -61 -85 -75 -90 -174 -3 -63 2 -124 18 -216
22 -123 23 -136 12 -318 -7 -104 -12 -230 -12 -280 0 -104 -8 -165 -23 -165
-5 0 -27 16 -48 35 -46 42 -56 43 -69 10 -11 -30 -10 -36 45 -150 24 -49 51
-112 60 -138 27 -85 43 -245 49 -492 4 -132 10 -285 15 -340 9 -96 21 -241 41
-486 6 -64 13 -228 16 -365 7 -273 0 -356 -41 -487 -30 -95 -26 -118 35 -213
41 -62 42 -64 35 -131 -3 -37 -9 -354 -13 -703 -7 -607 -8 -636 -27 -667 -19
-30 -19 -32 -1 -89 28 -88 35 -216 36 -599 0 -341 -8 -509 -30 -624 -6 -31
-10 -87 -8 -126 3 -65 5 -70 26 -73 13 -2 48 8 78 23 59 29 93 70 136 165 17
38 37 63 64 81 21 14 71 47 111 73 67 45 148 76 199 76 39 0 50 25 34 78 -28
102 -40 175 -56 357 -21 238 -15 603 11 675 13 38 14 53 4 95 -15 59 -14 295
1 535 9 141 13 167 30 185 26 28 25 51 -5 119 -28 63 -32 141 -15 281 40 329
51 775 38 1505 -9 568 -2 880 24 1003 6 30 11 198 13 397 1 282 5 359 19 420
41 182 70 247 157 351 56 67 30 71 -78 12 -78 -42 -87 -45 -98 -29 -17 22 -39
263 -31 332 3 30 9 79 12 109 9 70 -5 72 -66 10 -24 -25 -49 -45 -56 -45 -25
0 -43 45 -112 275 -23 77 -66 288 -77 375 -17 145 -58 345 -82 403 -16 36 -27
45 -37 29z"/>
<path d="M13904 12752 c-6 -4 -19 -23 -30 -42 -58 -105 -262 -365 -295 -375
-9 -3 -42 -28 -74 -56 -72 -63 -142 -108 -258 -165 -109 -54 -124 -66 -149
-121 -10 -23 -23 -45 -28 -48 -20 -13 -8 -55 39 -141 28 -49 55 -111 62 -139
8 -36 11 -263 11 -805 -1 -943 9 -876 -155 -1124 -117 -177 -111 -166 -93
-166 13 0 45 20 189 119 27 18 50 31 53 29 2 -3 6 -59 8 -124 3 -65 10 -176
16 -247 16 -168 7 -602 -14 -705 -20 -94 -55 -184 -118 -299 -40 -73 -70 -110
-147 -185 -53 -51 -132 -120 -175 -153 -43 -33 -91 -70 -105 -83 l-26 -23 55
6 c93 11 194 42 314 99 139 65 171 87 311 211 120 106 186 154 315 232 98 59
134 75 208 92 28 7 55 18 58 23 4 6 -7 29 -24 53 -48 68 -82 175 -93 294 -7
69 -8 315 -4 696 13 1156 14 1183 54 1250 11 20 21 38 21 41 0 2 -14 4 -30 4
-41 0 -99 -25 -132 -57 -15 -15 -31 -23 -35 -19 -10 10 -21 147 -29 388 -12
344 21 671 87 863 12 33 61 144 110 246 61 129 94 210 105 262 17 83 16 181
-2 169z"/>
<path d="M8855 12710 c-86 -17 -146 -35 -148 -45 -1 -6 59 -18 133 -27 74 -9
155 -22 180 -28 66 -17 217 -78 278 -114 29 -17 64 -37 78 -44 13 -7 24 -17
24 -22 0 -10 -237 -169 -300 -200 -25 -13 -67 -37 -95 -54 -79 -51 -232 -106
-400 -146 -22 -6 -175 -10 -340 -10 -234 0 -304 3 -320 14 -18 12 -20 22 -17
115 3 64 0 101 -6 101 -6 0 -26 -21 -45 -47 -41 -56 -161 -174 -196 -192 -19
-10 -43 -11 -115 -2 -50 6 -143 16 -207 21 -63 5 -140 18 -170 29 -91 31 -228
99 -324 161 -49 31 -119 73 -155 93 -36 20 -82 52 -104 72 -81 76 -44 9 88
-160 38 -49 136 -158 216 -240 190 -195 213 -240 247 -485 16 -121 30 -814 18
-956 l-7 -89 -97 -92 c-59 -56 -105 -109 -116 -133 -10 -22 -16 -42 -14 -44
36 -29 124 -88 155 -104 72 -37 69 -5 67 -684 -3 -764 3 -733 -176 -963 -99
-126 -284 -386 -294 -411 -11 -30 30 -12 134 61 148 102 214 139 343 191 105
43 112 45 135 30 33 -22 49 -20 101 10 46 27 183 54 277 54 47 0 49 -1 134
-90 48 -49 92 -90 98 -90 15 0 25 45 25 110 0 34 5 50 15 54 9 3 109 11 223
17 277 16 392 6 517 -46 193 -79 287 -136 653 -392 46 -33 72 -41 72 -24 0 27
-132 190 -289 358 -163 174 -278 309 -301 353 -28 57 -54 179 -54 265 -1 44 3
157 8 252 5 94 6 179 2 188 -6 17 -8 16 -27 -1 -12 -11 -32 -40 -45 -67 -34
-66 -114 -180 -176 -252 -96 -111 -170 -128 -543 -126 -183 2 -243 5 -253 15
-11 10 -13 88 -12 376 0 200 2 366 4 369 2 3 0 80 -4 171 -4 93 -4 170 1 176
12 15 285 27 309 14 13 -7 20 -24 22 -52 3 -47 27 -70 56 -52 9 6 38 41 64 80
25 38 64 84 85 103 209 187 303 302 339 417 31 98 22 111 -41 59 -54 -44 -162
-83 -220 -79 -22 2 -134 5 -250 8 -115 2 -241 8 -278 11 -60 6 -69 10 -78 32
-12 31 -12 943 0 962 8 12 57 14 268 15 222 1 267 -2 323 -17 138 -39 192 -85
285 -242 75 -126 148 -230 160 -227 6 1 9 101 7 275 -6 422 14 476 240 673 96
84 319 325 356 385 12 19 30 43 40 53 19 16 21 15 59 -28 52 -59 89 -130 109
-207 19 -73 28 -59 -91 -134 -38 -24 -95 -53 -125 -64 -61 -23 -140 -84 -181
-139 -36 -50 -121 -222 -148 -300 -26 -76 -61 -341 -61 -460 0 -186 43 -365
130 -539 34 -67 58 -127 55 -134 -12 -18 89 -104 177 -149 179 -93 375 -226
503 -341 118 -107 282 -278 315 -328 47 -73 80 -196 87 -317 5 -91 3 -107 -16
-147 -12 -24 -28 -75 -35 -113 -18 -92 -29 -116 -71 -163 -98 -108 -326 -114
-461 -12 -91 69 -120 136 -111 266 6 98 39 191 97 276 41 60 42 63 24 76 -29
21 -87 8 -192 -43 -51 -25 -97 -42 -102 -39 -19 12 -84 121 -133 225 -28 58
-67 130 -88 161 -38 57 -114 126 -159 146 -14 6 -58 38 -98 72 -77 65 -102 80
-170 101 -44 14 -70 6 -38 -12 42 -23 180 -154 205 -193 46 -73 109 -217 140
-320 28 -92 59 -304 47 -323 -11 -18 -47 -212 -53 -282 -5 -64 -2 -86 21 -153
42 -124 102 -235 165 -300 110 -117 269 -219 386 -247 31 -7 171 -14 360 -17
253 -4 316 -8 340 -21 106 -54 229 -188 367 -397 54 -81 88 -125 100 -125 29
0 51 56 44 110 -10 72 -71 244 -117 329 -40 72 -147 223 -169 236 -19 12 -10
35 29 78 64 70 162 216 182 271 28 73 57 248 71 413 14 170 1 364 -33 488 -21
75 -26 125 -17 185 2 18 -2 25 -16 28 -25 5 -23 3 -139 149 -95 118 -137 160
-261 253 -32 25 -92 71 -134 103 -42 32 -130 90 -196 130 -94 56 -145 96 -231
179 -186 179 -219 260 -218 528 0 205 15 253 102 341 106 105 240 127 381 62
120 -56 160 -121 167 -273 6 -111 -15 -181 -73 -251 -101 -121 44 -156 199
-47 15 11 34 18 41 15 7 -3 29 -43 49 -89 167 -389 184 -418 310 -540 74 -71
174 -131 208 -126 18 3 11 16 -53 106 -75 105 -123 205 -179 372 -29 85 -32
108 -33 220 -1 104 3 137 21 196 49 155 81 394 53 394 -5 0 -10 6 -10 13 0 22
-62 130 -121 212 -54 74 -163 182 -234 232 -61 42 -212 111 -258 118 -47 7
-56 15 -195 155 -150 150 -264 235 -411 310 -94 47 -236 99 -316 116 -87 18
-294 26 -360 14z m-765 -3900 c0 -5 -5 -10 -11 -10 -5 0 -7 5 -4 10 3 6 8 10
11 10 2 0 4 -4 4 -10z"/>
<path d="M9567 8173 c-13 -12 -7 -241 8 -319 28 -141 37 -167 108 -299 102
-188 128 -226 247 -360 58 -66 119 -144 136 -174 16 -30 54 -82 84 -116 137
-150 174 -272 185 -610 5 -176 -7 -591 -21 -711 l-6 -51 -89 -13 c-160 -21
-288 -60 -344 -103 -20 -15 -20 -16 6 -26 15 -5 59 -14 99 -20 44 -6 98 -22
136 -41 71 -35 161 -111 175 -149 32 -84 49 -586 30 -901 l-6 -105 -62 -3
c-42 -2 -63 -7 -67 -17 -3 -9 16 -41 45 -77 28 -35 57 -75 65 -90 43 -82 17
-255 -65 -437 -28 -62 -60 -125 -70 -140 -29 -40 -106 -200 -124 -256 -34
-103 -46 -384 -27 -602 8 -94 17 -130 54 -225 80 -207 176 -377 296 -523 132
-160 300 -290 300 -231 0 7 -16 34 -36 60 -93 122 -194 310 -238 443 -54 164
-67 240 -73 418 -6 200 4 286 49 394 68 164 264 296 475 321 49 5 195 17 326
25 130 8 256 19 280 25 69 16 92 12 179 -29 46 -21 93 -41 106 -45 12 -3 31
-9 42 -12 28 -8 25 10 -10 61 -16 24 -30 55 -30 69 0 29 8 37 99 103 159 116
263 343 246 535 -4 40 -22 163 -40 273 -38 228 -58 488 -53 717 3 151 3 154
-24 200 -28 46 -87 96 -205 173 -34 22 -62 46 -63 54 0 8 24 35 53 60 115 101
164 157 184 212 41 107 52 226 59 589 5 297 4 358 -10 439 -34 188 -81 264
-236 380 -198 148 -283 168 -737 170 -236 1 -276 4 -324 20 -41 14 -59 27 -73
53 -11 18 -42 60 -68 92 -27 33 -58 77 -69 98 -22 42 -30 46 -55 21 -14 -15
-16 -30 -10 -114 4 -55 3 -100 -2 -103 -10 -6 -106 27 -125 42 -7 5 -48 29
-92 52 -44 24 -107 62 -140 86 -89 64 -308 283 -324 324 -7 19 -28 72 -47 117
-19 46 -47 128 -62 183 -26 97 -31 107 -45 93z m1641 -1509 c99 -20 173 -54
199 -90 35 -50 61 -136 68 -226 l7 -86 -36 -37 c-20 -19 -36 -39 -36 -44 0 -5
9 -20 20 -34 55 -69 66 -184 29 -303 -18 -58 -30 -78 -78 -125 -59 -58 -142
-99 -199 -99 -15 0 -56 -9 -90 -20 -35 -11 -90 -20 -123 -20 -53 0 -60 2 -68
23 -5 13 -8 154 -6 313 2 159 4 393 4 521 1 212 2 232 19 236 42 11 219 6 290
-9z m104 -1571 c84 -38 186 -152 217 -243 6 -19 16 -89 23 -156 10 -108 9
-127 -7 -177 l-17 -56 27 -76 c25 -68 27 -84 22 -168 -2 -50 -14 -127 -26
-171 -51 -185 -116 -240 -320 -271 -96 -14 -317 -22 -328 -11 -10 10 -2 1320
8 1332 15 18 57 22 214 20 117 -2 148 -6 187 -23z"/>
<path d="M6263 7869 c-128 -34 -247 -102 -408 -232 -103 -83 -247 -201 -264
-217 -9 -8 -61 -55 -115 -104 -54 -50 -115 -105 -135 -124 -33 -30 -188 -147
-265 -198 -88 -59 -179 -116 -211 -131 -19 -9 -35 -23 -35 -31 0 -8 24 -40 53
-73 59 -64 100 -140 118 -215 12 -50 16 -474 5 -492 -3 -6 -45 16 -93 48 -70
47 -187 100 -218 100 -15 0 1 -25 46 -72 116 -120 190 -238 208 -335 7 -32 21
-77 31 -101 32 -68 40 -260 40 -938 l0 -611 -30 -39 c-16 -21 -40 -51 -52 -67
l-22 -27 34 -35 c33 -34 33 -35 27 -105 -8 -91 -43 -158 -142 -269 -50 -55
-76 -94 -79 -115 -3 -17 -7 -96 -10 -176 -3 -105 -9 -157 -22 -190 -27 -69
-21 -196 16 -370 18 -80 37 -172 44 -205 41 -194 180 -456 320 -605 24 -25 78
-90 121 -145 155 -199 344 -366 570 -502 115 -70 112 -61 -30 93 -201 218
-237 262 -316 384 -81 124 -91 141 -114 185 -12 22 -50 90 -85 150 -77 134
-109 211 -141 335 -20 81 -24 117 -23 245 1 83 7 177 14 210 38 183 153 357
272 413 81 38 170 45 473 39 154 -3 292 -10 306 -15 14 -6 47 -29 74 -52 62
-54 80 -50 80 15 0 47 1 50 25 48 69 -4 131 -14 161 -27 47 -20 158 -137 215
-226 26 -41 88 -118 138 -171 50 -52 123 -129 161 -170 39 -43 114 -105 170
-144 55 -38 138 -96 185 -130 268 -193 638 -378 800 -400 l45 -6 -23 20 c-12
11 -60 41 -105 68 -45 26 -113 78 -152 114 -70 65 -116 102 -274 217 -81 60
-306 269 -346 322 -11 15 -67 85 -124 156 -73 91 -115 155 -145 219 -24 49
-67 131 -98 180 -87 140 -93 155 -75 172 17 17 43 14 220 -26 73 -17 96 -19
136 -9 44 10 51 9 94 -16 51 -30 222 -66 315 -66 l55 0 -6 38 c-2 20 -24 71
-48 112 -23 41 -60 115 -81 164 -36 83 -38 92 -29 140 5 28 15 107 21 176 6
69 21 170 32 225 11 55 22 113 25 128 7 38 24 43 97 28 93 -19 325 -91 379
-119 41 -20 56 -23 100 -16 61 9 68 8 124 -12 52 -19 64 -46 96 -225 54 -298
60 -353 54 -497 -5 -112 -12 -157 -37 -241 -51 -172 -104 -262 -249 -422 -83
-91 -90 -114 -32 -106 94 12 287 131 398 244 40 41 96 112 124 158 64 104 81
120 154 146 55 19 66 20 184 9 128 -12 132 -13 309 -89 40 -18 95 -35 123 -38
48 -6 51 -5 41 13 -6 10 -57 64 -114 119 -96 93 -152 156 -205 231 -31 44
-109 251 -138 363 -22 86 -69 334 -109 576 -9 50 -25 144 -36 210 -36 213 -22
403 37 506 28 48 146 182 261 294 34 34 62 65 62 70 0 13 -79 -2 -163 -30 -87
-29 -172 -82 -232 -144 -50 -52 -72 -53 -80 -3 -3 20 -14 71 -25 112 -11 41
-24 104 -30 140 -5 36 -23 151 -39 255 -58 363 -63 400 -68 452 -7 72 13 189
42 248 14 28 50 85 80 128 59 83 67 112 35 122 -25 8 -55 -8 -105 -54 -22 -21
-53 -43 -68 -49 -26 -11 -28 -10 -38 16 -15 36 -5 219 14 264 8 19 28 50 44
69 16 19 51 75 78 124 74 138 92 161 164 208 76 51 229 140 316 184 33 17 80
43 105 57 l45 26 -35 1 c-236 6 -421 -45 -745 -206 -94 -47 -175 -85 -179 -85
-5 0 -24 -12 -43 -26 -21 -16 -55 -29 -91 -34 -77 -12 -115 -23 -192 -55 -36
-14 -99 -33 -140 -41 -41 -8 -95 -19 -120 -23 -25 -5 -89 -7 -143 -4 -76 5
-106 2 -135 -10 -25 -11 -81 -17 -170 -20 -79 -3 -138 -9 -145 -16 -8 -8 9
-31 65 -86 77 -74 142 -154 171 -210 30 -59 42 -146 28 -211 -7 -32 -23 -117
-36 -189 -14 -71 -29 -152 -35 -180 -6 -27 -26 -159 -45 -293 -36 -246 -60
-376 -94 -512 -10 -41 -31 -127 -45 -190 l-27 -115 -57 -18 c-85 -27 -256
-112 -297 -148 -50 -44 -205 -281 -205 -314 0 -19 33 3 68 46 57 70 106 105
177 128 72 22 185 33 240 23 36 -7 40 -10 43 -41 4 -39 -48 -295 -84 -421 -14
-47 -39 -104 -55 -127 -35 -49 -35 -61 -8 -107 23 -40 22 -67 -12 -231 -31
-152 -101 -305 -140 -305 -29 0 -45 47 -64 186 -37 272 -64 377 -129 499 -19
36 -40 81 -46 100 -11 33 -83 146 -121 190 -67 78 -103 115 -110 115 -15 0
-10 -41 16 -124 99 -324 114 -392 115 -523 0 -172 -38 -245 -136 -258 -27 -3
-71 -13 -97 -21 -42 -13 -79 -13 -250 -5 -111 6 -239 12 -284 14 -51 1 -87 7
-95 15 -10 10 -13 87 -12 355 1 321 2 348 24 431 23 94 62 193 90 236 30 44
100 176 100 188 0 25 -46 10 -122 -38 l-78 -49 -16 24 c-14 21 -15 92 -9 682
6 674 15 901 39 1034 28 154 191 567 263 664 70 95 271 300 361 368 139 104
131 96 107 96 -11 0 -53 -9 -92 -20z m1725 -1395 c13 -35 22 -91 52 -329 6
-44 22 -143 35 -220 57 -325 75 -475 75 -643 0 -153 1 -166 25 -211 33 -67 60
-198 44 -217 -16 -20 -49 -18 -111 7 -81 32 -196 65 -273 78 -38 6 -82 16 -97
22 -46 19 -46 58 0 289 46 229 69 365 107 650 27 203 70 469 84 530 5 19 12
48 15 63 9 38 26 30 44 -19z"/>
<path d="M21519 7880 c-28 -8 -115 -66 -167 -112 -38 -33 -235 -167 -272 -185
-14 -7 -32 -17 -40 -23 -14 -9 -179 -87 -240 -113 -14 -6 -32 -16 -40 -23 -23
-17 -127 -51 -200 -64 -35 -6 -82 -18 -105 -25 -147 -50 -307 -78 -617 -110
-76 -7 -142 -16 -148 -20 -27 -17 -7 -52 96 -175 101 -121 129 -217 100 -351
-38 -185 -135 -734 -166 -949 -31 -210 -55 -332 -69 -358 -4 -8 -31 -22 -59
-32 -49 -17 -127 -73 -279 -201 -60 -50 -79 -73 -112 -140 -41 -81 -56 -132
-49 -166 3 -14 24 2 98 75 112 110 188 152 275 152 l55 0 0 -32 c0 -50 -28
-242 -90 -628 -23 -145 -92 -455 -114 -519 -18 -50 -93 -165 -130 -200 -22
-21 -28 -22 -54 -12 -67 28 -123 138 -159 316 -17 84 -18 161 -16 1253 l2
1162 31 211 c31 221 63 345 111 441 45 90 152 224 263 330 55 53 97 100 93
104 -4 4 -31 -3 -60 -15 -28 -13 -88 -36 -132 -51 -156 -54 -194 -78 -556
-353 -35 -27 -86 -59 -114 -72 -27 -12 -81 -37 -120 -55 -38 -19 -95 -43 -125
-55 -71 -27 -73 -43 -20 -171 40 -95 41 -105 50 -252 8 -151 4 -779 -5 -837
-3 -16 -19 -48 -35 -69 -35 -46 -38 -76 -10 -101 18 -16 19 -28 15 -199 -6
-236 -8 -246 -62 -313 -50 -61 -51 -86 -4 -77 17 4 42 3 56 0 21 -5 25 -12 25
-41 0 -18 10 -93 21 -166 21 -129 21 -145 11 -509 -11 -372 -12 -377 -41 -470
-82 -269 -197 -518 -304 -664 -33 -45 -121 -141 -195 -214 -74 -73 -132 -135
-129 -138 29 -30 253 74 432 199 96 67 127 96 237 226 83 98 135 151 152 155
42 10 135 74 208 143 45 42 96 77 150 104 l83 40 120 -2 c66 -1 161 1 211 6
131 11 264 -7 404 -55 141 -48 230 -70 293 -70 65 0 67 22 7 115 -22 33 -51
86 -66 118 l-26 59 7 176 c6 155 18 259 62 510 3 19 12 36 19 39 7 2 57 -5
111 -16 322 -69 485 -103 536 -113 71 -13 103 -37 117 -89 6 -22 17 -113 25
-202 8 -89 17 -189 21 -223 8 -73 -11 -116 -80 -184 -25 -24 -46 -52 -46 -62
0 -11 31 -38 83 -73 118 -77 207 -162 245 -232 125 -235 158 -602 81 -908 -67
-264 -161 -487 -258 -609 -17 -21 -31 -43 -31 -47 0 -5 -33 -44 -73 -87 -40
-42 -95 -104 -122 -137 -28 -33 -72 -82 -99 -108 -26 -26 -45 -51 -42 -54 17
-18 208 106 354 229 111 95 215 208 258 281 19 33 55 83 78 111 58 69 156 217
196 296 56 111 137 313 144 362 4 26 20 99 36 162 56 221 58 297 10 431 -16
43 -20 73 -17 110 3 27 11 113 18 190 l12 140 -46 106 c-42 95 -73 185 -121
344 -13 45 -76 366 -156 798 -16 88 -28 169 -26 180 3 12 5 25 5 28 1 4 40 9
88 11 108 6 142 -4 292 -83 136 -72 191 -121 294 -264 82 -113 125 -165 138
-165 23 0 7 69 -53 230 -28 74 -107 220 -153 280 -32 42 -226 230 -265 257
-97 66 -279 152 -360 169 -48 10 -81 23 -85 32 -15 39 -56 276 -75 432 -11 96
-27 218 -35 270 -8 52 -19 138 -25 190 -6 52 -15 133 -21 180 -18 139 -22 359
-9 418 21 97 69 192 170 346 78 119 117 168 180 225 59 53 94 96 131 159 28
48 60 99 70 114 11 14 19 29 19 32 0 8 -39 6 -71 -4z m-1029 -1622 c11 -79 27
-177 35 -218 8 -41 31 -185 50 -320 20 -135 50 -301 66 -370 28 -116 48 -300
49 -459 l0 -44 -52 6 c-29 3 -100 21 -158 40 -58 19 -143 40 -190 47 -47 7
-93 17 -102 22 -26 13 -23 89 7 231 13 64 29 143 34 175 5 31 21 125 35 207
14 83 39 242 56 355 42 275 78 487 92 534 l12 38 23 -51 c15 -33 30 -100 43
-193z"/>
<path d="M15320 7774 c0 -3 21 -47 47 -97 39 -75 67 -112 158 -206 60 -62 142
-137 180 -166 97 -72 314 -293 370 -376 25 -37 58 -94 73 -126 25 -53 27 -68
27 -183 0 -69 -6 -185 -14 -259 -13 -130 -9 -287 8 -304 16 -16 51 49 116 218
37 97 77 156 149 220 79 71 122 85 276 92 103 4 129 2 145 -10 20 -15 20 -26
19 -581 -1 -311 -5 -577 -8 -591 -4 -14 -12 -25 -19 -25 -7 0 -48 36 -91 80
-44 44 -85 80 -93 80 -30 0 -1 -149 44 -229 66 -117 114 -212 140 -276 l27
-70 4 -465 c4 -483 -8 -828 -33 -971 -13 -75 -18 -86 -56 -125 -46 -46 -47
-74 -4 -74 34 0 33 -14 -16 -200 -72 -278 -120 -395 -240 -590 -64 -105 -209
-291 -298 -383 -59 -61 -265 -226 -363 -291 -69 -45 -74 -61 -18 -52 116 18
259 84 436 199 153 100 214 151 400 334 275 270 347 361 446 558 72 143 145
251 245 363 48 53 93 101 100 105 24 15 103 119 109 143 5 18 -4 41 -34 87
-55 83 -67 115 -88 232 -16 86 -18 150 -17 450 2 438 14 640 40 715 18 50 44
97 147 264 60 99 47 105 -86 44 -37 -17 -73 -28 -81 -25 -12 4 -13 88 -10 539
2 293 6 583 9 644 l6 112 30 6 c45 9 154 7 232 -4 81 -12 147 -45 210 -106 50
-47 74 -90 112 -197 30 -82 79 -183 93 -192 41 -25 46 209 10 455 -24 168 -21
221 21 306 39 82 101 147 248 265 70 56 162 140 205 187 85 94 193 233 210
270 31 68 -59 32 -208 -82 -87 -67 -156 -116 -230 -164 -11 -7 -67 -35 -125
-63 -124 -60 -252 -104 -341 -118 -186 -28 -703 -32 -796 -5 -44 12 -62 25
-120 89 -37 41 -73 75 -80 75 -17 0 -39 -47 -47 -101 -5 -37 -13 -49 -38 -64
-64 -37 -337 -29 -492 15 -159 45 -411 164 -544 256 -136 95 -357 264 -422
323 -49 45 -80 62 -80 45z"/>
<path d="M14501 7501 c-51 -73 -98 -114 -123 -108 -13 4 -34 -13 -76 -60 -140
-159 -146 -165 -193 -174 -24 -4 -64 -13 -89 -19 -25 -6 -94 -13 -155 -15
-230 -7 -403 -7 -414 -1 -7 5 -11 45 -11 111 0 86 -3 104 -16 109 -21 8 -15
16 -69 -84 -53 -97 -79 -125 -133 -139 -76 -22 -520 -5 -666 25 -44 9 -117 30
-161 46 -74 27 -304 146 -367 189 -102 71 -43 -81 88 -225 84 -92 214 -286
221 -330 4 -25 0 -42 -15 -63 -42 -60 -72 -135 -82 -204 -7 -48 -7 -173 0
-388 14 -401 3 -586 -37 -666 -9 -16 -53 -69 -99 -117 -46 -48 -84 -96 -84
-106 0 -24 22 -42 90 -75 77 -37 107 -71 120 -137 7 -31 15 -294 20 -605 7
-422 13 -566 24 -620 20 -93 20 -126 -4 -258 -28 -149 -53 -233 -90 -291 -75
-118 -126 -243 -155 -384 -16 -78 -20 -212 -7 -212 5 0 19 24 33 53 13 28 48
92 77 140 191 312 422 463 700 455 l97 -3 -3 -32 c-3 -43 7 -41 39 6 l27 38
137 6 c219 11 432 8 530 -7 114 -18 193 -48 383 -146 168 -88 236 -131 252
-160 15 -27 220 -191 231 -184 17 10 -44 113 -150 254 -104 137 -123 159 -143
165 -10 4 -18 12 -18 18 0 7 -49 66 -110 132 -85 93 -120 141 -157 213 -46 89
-48 99 -51 186 -2 51 1 142 8 202 23 212 24 288 6 303 -24 20 -62 6 -76 -30
-14 -32 -152 -267 -180 -305 -49 -66 -131 -98 -277 -108 -335 -22 -475 -23
-525 -3 l-33 13 3 535 c2 294 7 550 11 569 l7 35 143 3 c95 2 148 -1 157 -9 9
-7 14 -40 16 -97 4 -101 16 -113 54 -50 14 24 51 86 82 140 48 81 69 106 132
155 110 87 187 177 258 301 56 98 87 182 67 182 -4 0 -46 -25 -94 -55 -55 -35
-104 -58 -137 -64 -64 -12 -516 -13 -608 -1 -37 4 -73 13 -78 18 -11 11 -11
728 1 912 l6 105 110 3 c185 5 515 -14 556 -31 73 -30 138 -106 253 -297 76
-126 94 -153 110 -162 10 -5 20 -7 23 -4 4 3 8 156 10 338 l3 333 47 70 c46
67 427 464 448 466 16 1 148 153 162 187 11 26 10 30 -1 26 -10 -4 -12 2 -9
20 3 14 3 26 1 26 -3 0 -24 -27 -47 -59z"/>
<path d="M14900 7219 c-249 -31 -417 -120 -562 -300 -62 -77 -131 -219 -158
-324 -47 -183 -53 -555 -11 -720 26 -106 75 -232 109 -282 15 -22 55 -82 89
-133 72 -107 92 -126 228 -205 54 -32 153 -100 220 -150 66 -50 169 -124 229
-165 95 -65 116 -85 169 -160 33 -47 71 -98 84 -114 60 -72 122 -236 138 -361
7 -60 -26 -262 -56 -346 -29 -79 -67 -120 -144 -158 -59 -29 -77 -33 -153 -34
-121 -2 -187 21 -255 87 -73 70 -99 137 -105 272 -4 98 -3 104 27 167 17 36
54 90 81 120 60 66 66 97 18 97 -71 0 -145 -33 -222 -97 -44 -37 -73 -42 -83
-15 -3 9 -28 64 -55 120 -26 57 -48 106 -48 108 0 3 -21 42 -46 87 -53 94
-107 154 -179 199 -27 18 -77 60 -110 94 -33 33 -79 71 -102 83 -43 21 -73 27
-73 14 0 -5 33 -49 73 -99 120 -151 156 -222 202 -404 35 -134 35 -260 0 -465
-42 -250 -24 -356 90 -531 115 -178 261 -287 446 -333 172 -44 415 -50 589
-14 265 53 484 234 586 484 36 87 74 217 74 250 0 42 17 79 37 79 10 0 50 -18
88 -41 82 -48 113 -61 119 -50 6 10 -26 63 -74 120 -43 52 -112 172 -128 222
-6 19 -18 75 -27 124 -51 284 -94 398 -205 555 -90 127 -123 164 -224 244 -50
40 -104 85 -120 100 -31 30 -290 203 -344 230 -46 24 -74 48 -229 197 -103
100 -118 131 -148 304 -25 150 -13 355 26 444 62 142 258 226 410 176 98 -33
173 -95 205 -170 22 -52 30 -205 15 -275 -7 -31 -28 -79 -52 -114 -54 -80 -59
-109 -25 -131 36 -24 76 -14 166 39 41 24 79 41 84 39 5 -3 26 -45 48 -92 22
-47 77 -151 121 -231 96 -169 178 -260 322 -357 192 -128 272 -119 96 12 -89
66 -125 108 -137 160 -4 17 -26 80 -49 141 -67 173 -78 239 -72 417 7 230 43
413 98 499 17 26 28 52 25 57 -4 5 -28 17 -55 26 -49 16 -105 65 -132 117 -47
90 -221 250 -339 312 -129 68 -385 101 -590 75z m170 -49 c0 -5 -5 -10 -11
-10 -5 0 -7 5 -4 10 3 6 8 10 11 10 2 0 4 -4 4 -10z"/>
<path d="M3683 4697 c-23 -17 -60 -53 -83 -79 -35 -40 -45 -46 -60 -38 -44 23
-90 9 -150 -46 -34 -31 -129 -88 -171 -103 -58 -20 -118 -61 -134 -90 -8 -16
-19 -56 -24 -90 -5 -33 -13 -67 -18 -75 -10 -19 -131 -116 -144 -116 -5 0 -9
-7 -9 -15 0 -18 40 -39 108 -55 32 -7 58 -20 67 -33 18 -26 20 -137 3 -217
-10 -49 -9 -60 9 -102 17 -37 19 -55 13 -90 -8 -40 -34 -208 -45 -288 -6 -38
6 -67 23 -56 5 3 43 56 83 116 46 71 80 112 94 116 14 3 43 -5 73 -20 85 -43
180 -29 303 45 36 21 71 39 78 39 8 0 43 -11 80 -24 36 -13 83 -26 104 -30 53
-10 49 9 -25 111 l-61 86 13 107 c15 130 11 166 -45 391 -66 263 -67 298 -10
515 8 31 12 61 9 65 -10 17 -39 8 -81 -24z"/>
<path d="M22659 4703 c-2 -38 3 -81 18 -158 19 -99 14 -185 -21 -320 -64 -254
-80 -379 -65 -489 13 -94 15 -87 -77 -221 -19 -27 -34 -53 -34 -58 0 -19 35
-18 93 3 117 41 127 42 182 13 67 -35 208 -83 243 -83 16 0 57 14 91 31 75 38
67 43 168 -105 37 -55 73 -101 80 -103 15 -5 20 23 12 77 -44 304 -43 300 -26
348 15 40 16 58 6 159 -11 100 -10 118 4 148 13 27 26 37 59 46 62 16 118 40
118 49 0 5 -15 18 -33 29 -18 11 -46 31 -62 45 -17 14 -34 26 -38 26 -14 0
-37 67 -37 107 0 71 -18 110 -63 141 -23 16 -53 33 -67 37 -56 17 -184 86
-233 125 -47 38 -56 42 -96 37 -43 -5 -45 -4 -112 64 -68 69 -108 87 -110 52z"/>
<path d="M2192 4627 c-58 -53 -144 -103 -239 -140 -39 -16 -83 -39 -98 -53
-29 -26 -74 -31 -122 -13 -64 24 -125 30 -150 14 -31 -21 -22 -38 73 -128 40
-38 76 -78 79 -88 3 -10 -1 -76 -10 -146 -20 -152 -14 -246 19 -312 13 -25 29
-63 35 -84 17 -51 63 -94 119 -111 92 -28 141 -54 146 -78 3 -13 18 -81 35
-153 17 -71 33 -150 36 -175 9 -62 45 -214 55 -230 20 -32 35 20 55 190 26
220 57 391 78 420 7 10 37 40 66 66 94 84 133 201 167 494 5 41 1 51 -41 110
-25 36 -73 107 -106 159 -58 88 -62 99 -74 184 -9 66 -17 94 -31 104 -28 20
-41 16 -92 -30z"/>
<path d="M24112 4642 c-11 -11 -22 -41 -26 -72 -11 -83 -68 -194 -191 -370
-34 -49 -36 -81 -16 -213 28 -183 100 -348 183 -419 46 -40 55 -54 71 -110 10
-36 31 -165 46 -287 25 -200 39 -260 54 -234 9 17 28 83 37 129 32 182 41 231
64 326 13 59 27 112 31 118 6 10 66 39 152 75 58 24 87 58 124 145 37 88 48
181 36 310 -4 47 -8 108 -10 136 l-2 51 103 107 c56 58 102 111 102 116 0 16
-54 12 -138 -11 -108 -29 -164 -30 -194 -2 -13 12 -50 34 -83 48 -99 43 -198
96 -240 130 -55 44 -79 51 -103 27z"/>
</g>
</svg>
