<?xml version="1.0" encoding="UTF-8"?>
<!DOCTYPE svg PUBLIC "-//W3C//DTD SVG 1.1//EN" "http://www.w3.org/Graphics/SVG/1.1/DTD/svg11.dtd">
<svg xmlns="http://www.w3.org/2000/svg" version="1.1" width="3673px" height="2292px" style="shape-rendering:geometricPrecision; text-rendering:geometricPrecision; image-rendering:optimizeQuality; fill-rule:evenodd; clip-rule:evenodd" xmlns:xlink="http://www.w3.org/1999/xlink">
<g><path style="opacity:0.993" fill="#fefefe" d="M 847.5,643.5 C 850.007,642.477 852.173,643.144 854,645.5C 860.32,656.134 866.653,666.801 873,677.5C 878.245,691.814 882.245,706.481 885,721.5C 885.321,734.583 885.488,747.583 885.5,760.5C 885.439,763.903 884.939,767.236 884,770.5C 882.701,771.98 881.034,772.646 879,772.5C 874.236,771.097 869.403,770.597 864.5,771C 871.484,773.576 877.984,777.076 884,781.5C 884.037,791.868 884.037,802.201 884,812.5C 884.107,815.557 882.94,817.891 880.5,819.5C 875.217,816.378 870.384,812.711 866,808.5C 861.575,816.593 855.408,823.093 847.5,828C 843.553,830.28 839.887,832.947 836.5,836C 829.097,838.802 821.764,841.802 814.5,845C 812.362,846.422 811.195,848.255 811,850.5C 820.805,846.34 830.638,842.174 840.5,838C 846.167,833.667 851.833,829.333 857.5,825C 860.87,821.965 863.87,818.632 866.5,815C 867.833,814.333 869.167,814.333 870.5,815C 873.436,819.39 876.936,823.223 881,826.5C 881.667,831.833 881.667,837.167 881,842.5C 879.11,849.728 877.777,857.062 877,864.5C 874.781,866.995 871.948,867.995 868.5,867.5C 864.008,868.002 860.175,866.668 857,863.5C 856.493,864.996 856.993,866.163 858.5,867C 863.08,868.383 867.747,869.383 872.5,870C 874.587,870.792 876.421,871.959 878,873.5C 878.833,872.5 879.667,871.5 880.5,870.5C 881.665,877.811 881.831,885.144 881,892.5C 880.3,896.066 878.467,898.9 875.5,901C 876.672,901.353 877.838,901.187 879,900.5C 881.97,901.022 882.804,902.522 881.5,905C 879.915,905.085 878.582,905.251 877.5,905.5C 878.815,907.316 880.315,908.983 882,910.5C 883.956,920.496 883.956,930.496 882,940.5C 881.647,943.539 880.48,946.205 878.5,948.5C 881.456,957.402 880.79,966.069 876.5,974.5C 875.304,974.154 875.304,973.654 876.5,973C 874.33,971.414 871.996,970.08 869.5,969C 865.254,963.241 864.754,963.741 868,970.5C 875.742,976.376 879.242,984.209 878.5,994C 877.854,997.812 877.354,1001.65 877,1005.5C 871.261,1030.74 861.261,1054.07 847,1075.5C 836.593,1085.91 825.593,1095.58 814,1104.5C 812.143,1111.09 808.977,1116.93 804.5,1122C 801.888,1123.89 799.055,1125.39 796,1126.5C 792.829,1124.32 789.662,1124.15 786.5,1126C 789.306,1127.31 790.14,1129.47 789,1132.5C 785.395,1135.58 781.562,1136.08 777.5,1134C 781.236,1127.03 780.236,1126.7 774.5,1133C 771.507,1134.37 768.507,1134.7 765.5,1134C 765.167,1134.33 764.833,1134.67 764.5,1135C 771.925,1134.47 776.425,1137.64 778,1144.5C 776.691,1146.98 774.858,1148.98 772.5,1150.5C 771.269,1149.35 771.269,1148.18 772.5,1147C 766.704,1147.42 761.704,1149.76 757.5,1154C 752.838,1155.38 748.171,1155.88 743.5,1155.5C 742.833,1156.5 742.167,1157.5 741.5,1158.5C 742.167,1158.83 742.833,1159.17 743.5,1159.5C 745.782,1158.78 748.116,1158.44 750.5,1158.5C 750.67,1159.82 750.337,1160.99 749.5,1162C 741.557,1166.94 733.891,1172.28 726.5,1178C 717.32,1184.34 707.32,1188.84 696.5,1191.5C 693.165,1190.65 689.832,1190.15 686.5,1190C 683.341,1193.08 679.675,1195.42 675.5,1197C 664.388,1201.89 653.054,1206.22 641.5,1210C 627.195,1213.27 612.862,1216.1 598.5,1218.5C 597.034,1222 596.367,1225.67 596.5,1229.5C 599.285,1276.14 599.785,1322.81 598,1369.5C 597.009,1370.94 595.676,1371.94 594,1372.5C 591.254,1371.35 588.421,1370.85 585.5,1371C 582.396,1375.25 583.563,1377.09 589,1376.5C 590.894,1376.42 592.727,1376.09 594.5,1375.5C 595.478,1375.98 596.311,1376.64 597,1377.5C 596.681,1398.23 599.347,1418.57 605,1438.5C 606.497,1442.16 608.497,1445.5 611,1448.5C 611.687,1450.92 611.187,1453.09 609.5,1455C 612.539,1456.03 615.039,1457.86 617,1460.5C 617.554,1465.51 618.22,1470.51 619,1475.5C 619.333,1475.83 619.667,1476.17 620,1476.5C 620.651,1474.76 620.485,1473.1 619.5,1471.5C 620,1471.17 620.5,1470.83 621,1470.5C 625.436,1472.6 628.936,1475.77 631.5,1480C 629.813,1481.91 629.313,1484.08 630,1486.5C 633.126,1488.95 635.459,1491.95 637,1495.5C 637.635,1494.03 638.469,1492.7 639.5,1491.5C 636.785,1488.79 634.451,1485.79 632.5,1482.5C 632.833,1482.17 633.167,1481.83 633.5,1481.5C 642.857,1487.36 650.357,1495.02 656,1504.5C 656.651,1506.24 656.485,1507.9 655.5,1509.5C 655.977,1510.93 656.643,1512.26 657.5,1513.5C 658.768,1512.57 660.101,1512.41 661.5,1513C 658.833,1517 655.5,1520.33 651.5,1523C 643.064,1527.22 634.398,1530.88 625.5,1534C 618.303,1541.87 609.969,1548.2 600.5,1553C 595.567,1558.6 589.567,1562.6 582.5,1565C 571.5,1574.67 560.5,1584.33 549.5,1594C 545.499,1596.22 541.333,1598.06 537,1599.5C 533.558,1597.86 530.058,1596.36 526.5,1595C 524.5,1594.33 522.5,1594.33 520.5,1595C 525.711,1597.68 530.211,1601.18 534,1605.5C 534.711,1607.37 534.211,1608.87 532.5,1610C 529.574,1610.22 526.74,1610.72 524,1611.5C 523.163,1618.69 519.497,1624.02 513,1627.5C 508.184,1636.15 502.184,1643.82 495,1650.5C 494.647,1659.33 490.481,1666.16 482.5,1671C 477.643,1672.96 472.643,1674.46 467.5,1675.5C 469.192,1677.36 470.692,1679.36 472,1681.5C 474.207,1678.44 477.041,1676.44 480.5,1675.5C 479.98,1679.54 478.147,1682.87 475,1685.5C 474,1691.17 473,1696.83 472,1702.5C 466.056,1716.72 460.39,1731.05 455,1745.5C 453.458,1755.83 453.125,1766.16 454,1776.5C 453.626,1777.42 453.126,1778.25 452.5,1779C 447.543,1780.49 442.543,1781.82 437.5,1783C 443.734,1784.88 448.567,1788.72 452,1794.5C 451.254,1810.14 450.588,1825.8 450,1841.5C 449.208,1843.59 448.041,1845.42 446.5,1847C 442.224,1848.49 437.891,1849.82 433.5,1851C 432.663,1852.01 432.33,1853.18 432.5,1854.5C 436.244,1854.31 439.911,1853.65 443.5,1852.5C 445.766,1852.93 447.266,1854.26 448,1856.5C 451.393,1869.44 452.727,1882.44 452,1895.5C 461.929,1917.39 467.262,1940.39 468,1964.5C 471.5,1973 475,1981.5 478.5,1990C 480.589,1998.19 482.755,2006.36 485,2014.5C 492.333,2033.5 498.667,2052.83 504,2072.5C 506.609,2078.06 509.443,2083.39 512.5,2088.5C 501.939,2085.44 493.439,2079.44 487,2070.5C 477.25,2054.66 467.25,2039 457,2023.5C 454.472,2018.25 452.139,2012.92 450,2007.5C 447,2005.17 444,2002.83 441,2000.5C 432.554,1990.05 424.887,1979.05 418,1967.5C 417.433,1964.83 416.933,1962.17 416.5,1959.5C 418.199,1959.66 419.866,1959.49 421.5,1959C 418.734,1957.53 416.234,1955.7 414,1953.5C 405.34,1936.2 396.673,1918.87 388,1901.5C 384.667,1892.83 381.333,1884.17 378,1875.5C 376.245,1865.56 374.912,1855.56 374,1845.5C 370.312,1836.9 368.645,1827.9 369,1818.5C 366.132,1813.19 364.965,1807.52 365.5,1801.5C 367.199,1801.66 368.866,1801.49 370.5,1801C 368.981,1799.65 367.648,1798.15 366.5,1796.5C 369.962,1794.93 373.295,1793.1 376.5,1791C 372.554,1791.65 368.554,1791.98 364.5,1792C 360.488,1785.91 359.654,1779.41 362,1772.5C 363.399,1771.77 364.899,1771.27 366.5,1771C 364.324,1770.84 362.491,1770 361,1768.5C 351.328,1735.15 351.661,1701.82 362,1668.5C 363.29,1666.21 364.957,1664.21 367,1662.5C 367.21,1659.77 368.044,1657.27 369.5,1655C 371.995,1654.84 374.328,1654.68 376.5,1654.5C 375.112,1652.89 374.112,1651.06 373.5,1649C 375.515,1641.98 379.515,1636.32 385.5,1632C 383.508,1631.43 382.008,1630.26 381,1628.5C 378.55,1617.1 379.216,1605.76 383,1594.5C 387.255,1586.99 391.255,1579.32 395,1571.5C 397.71,1559.03 401.043,1546.7 405,1534.5C 418.597,1511.97 428.93,1487.97 436,1462.5C 437.753,1460 439.253,1457.33 440.5,1454.5C 438.797,1442.22 439.463,1430.05 442.5,1418C 440.254,1400.44 442.754,1383.6 450,1367.5C 453.586,1365.29 457.086,1362.96 460.5,1360.5C 456.842,1358.67 453.176,1356.84 449.5,1355C 447.19,1353.36 445.69,1351.2 445,1348.5C 445.814,1308.18 446.48,1267.85 447,1227.5C 447.36,1225.39 448.027,1223.39 449,1221.5C 451.077,1219.92 452.577,1217.92 453.5,1215.5C 452.653,1214.16 451.487,1213.16 450,1212.5C 449.916,1208.44 449.083,1204.44 447.5,1200.5C 447.8,1197.42 449.133,1194.92 451.5,1193C 456.453,1192 461.453,1191.34 466.5,1191C 459.926,1185.1 454.092,1178.6 449,1171.5C 447.19,1162.84 447.356,1154.17 449.5,1145.5C 449.674,1143.31 449.007,1141.47 447.5,1140C 434.085,1136.47 420.418,1134.64 406.5,1134.5C 391.042,1136.61 376.042,1140.45 361.5,1146C 352.079,1152.75 343.246,1160.25 335,1168.5C 328.526,1177.64 321.359,1186.14 313.5,1194C 311.866,1194.49 310.199,1194.66 308.5,1194.5C 309.451,1197.56 308.951,1200.56 307,1203.5C 300.149,1213.2 292.816,1222.53 285,1231.5C 281.692,1237.29 278.525,1243.12 275.5,1249C 273.167,1249.67 270.833,1249.67 268.5,1249C 266.494,1244.25 266.661,1239.41 269,1234.5C 269.188,1223.8 269.855,1213.13 271,1202.5C 274.739,1184.51 278.406,1166.51 282,1148.5C 286.149,1133.39 291.482,1118.72 298,1104.5C 303.511,1099.83 309.677,1096.33 316.5,1094C 313.571,1090.42 311.571,1086.42 310.5,1082C 311.51,1075.81 314.01,1070.31 318,1065.5C 337.723,1044.43 359.223,1025.6 382.5,1009C 392.33,1003.95 402.33,999.28 412.5,995C 419.326,992.768 426.326,991.435 433.5,991C 440.912,988.979 447.745,985.812 454,981.5C 456.321,982.487 457.987,984.154 459,986.5C 460.543,984.622 462.376,983.122 464.5,982C 469.167,981.667 473.833,981.333 478.5,981C 480.455,980.047 482.122,978.713 483.5,977C 477.362,976.907 471.362,977.907 465.5,980C 461.833,980.667 458.167,980.667 454.5,980C 445.587,970.831 444.254,960.831 450.5,950C 448.598,949.801 447.098,948.967 446,947.5C 445.122,943.211 444.622,938.878 444.5,934.5C 445.161,908.999 445.828,883.499 446.5,858C 444.109,833.18 443.942,808.347 446,783.5C 446.252,778.56 447.086,773.727 448.5,769C 446.554,758.921 446.054,748.755 447,738.5C 447.688,734.791 449.188,731.457 451.5,728.5C 448.059,727.393 446.059,725.06 445.5,721.5C 446.061,718.465 446.727,715.465 447.5,712.5C 441.382,697.076 437.882,681.076 437,664.5C 434.916,660.664 432.583,656.997 430,653.5C 419.149,632.137 409.149,610.471 400,588.5C 392.167,573.5 384.333,558.5 376.5,543.5C 377.04,542.252 377.707,541.085 378.5,540C 383.008,538.049 387.674,537.382 392.5,538C 400.148,543.313 405.982,550.146 410,558.5C 409.882,554.147 408.549,550.147 406,546.5C 400.85,541.927 395.517,537.594 390,533.5C 388.517,530.298 388.183,526.964 389,523.5C 393.624,521.252 398.457,520.918 403.5,522.5C 405.634,522.485 407.634,521.985 409.5,521C 414.979,515.19 420.812,509.69 427,504.5C 428.805,501.878 428.805,499.211 427,496.5C 420.596,488.814 412.429,484.981 402.5,485C 400.274,486.227 398.774,488.061 398,490.5C 397.733,505.643 392.566,518.809 382.5,530C 375.693,532.731 370.527,530.898 367,524.5C 354.9,503.198 346.567,480.531 342,456.5C 338.905,452.411 336.239,448.077 334,443.5C 326.694,407.11 318.527,370.943 309.5,335C 309.833,333.5 310.167,332 310.5,330.5C 314.329,337.491 318.163,344.491 322,351.5C 325.054,362.385 328.721,373.052 333,383.5C 340.667,393.167 348.333,402.833 356,412.5C 365.084,418.248 372.917,425.415 379.5,434C 389.588,438.064 399.254,443.064 408.5,449C 412.37,455.876 417.37,461.876 423.5,467C 425.818,468.993 428.484,470.159 431.5,470.5C 430.842,466.323 432.508,464.823 436.5,466C 448.003,471.853 458.003,479.519 466.5,489C 474.332,491.463 482.332,493.13 490.5,494C 497.616,497.559 504.949,500.559 512.5,503C 519.048,510.584 524.215,519.084 528,528.5C 528.988,531.424 529.654,534.424 530,537.5C 532.703,540.538 535.703,543.205 539,545.5C 539.309,546.766 539.809,547.933 540.5,549C 539.13,555.048 538.297,561.214 538,567.5C 536.167,573.667 534.333,579.833 532.5,586C 535.895,589.952 538.395,594.452 540,599.5C 540.817,602.964 540.483,606.298 539,609.5C 527.365,617.414 515.198,618.414 502.5,612.5C 486.239,619.193 474.572,614.526 467.5,598.5C 466.372,597.738 465.205,597.071 464,596.5C 465.066,599.966 466.733,603.299 469,606.5C 477.886,614.125 481.886,623.792 481,635.5C 482.642,630.598 483.809,625.598 484.5,620.5C 490.293,619.071 496.126,617.738 502,616.5C 505.593,616.94 509.093,617.773 512.5,619C 519.991,618.748 527.325,619.081 534.5,620C 535.061,621.676 536.061,623.009 537.5,624C 546.692,627.731 556.026,631.064 565.5,634C 567.667,635.5 569.833,637 572,638.5C 572.795,640.901 573.962,643.068 575.5,645C 584.381,649.884 592.714,655.551 600.5,662C 601.167,662.667 601.833,662.667 602.5,662C 599.701,659.742 598.368,657.075 598.5,654C 592.405,652.652 586.738,650.318 581.5,647C 577.5,642.333 573.5,637.667 569.5,633C 564.167,630 558.833,627 553.5,624C 550.238,621.408 547.738,618.241 546,614.5C 545.203,608.048 543.869,601.715 542,595.5C 538.931,592.458 536.764,588.958 535.5,585C 538.242,576.444 541.575,568.11 545.5,560C 542.085,555.187 541.752,550.187 544.5,545C 538.977,541.143 534.477,536.31 531,530.5C 530.061,523.512 529.728,516.512 530,509.5C 537.923,507.567 545.423,508.734 552.5,513C 561.645,513.995 570.478,516.161 579,519.5C 580.4,518.884 581.9,518.551 583.5,518.5C 588.159,519.066 592.826,519.566 597.5,520C 598.966,520.635 600.3,521.469 601.5,522.5C 602.611,521.389 603.945,520.722 605.5,520.5C 650.033,528.383 693.7,539.55 736.5,554C 752.044,561.939 767.711,569.605 783.5,577C 795.653,585.822 808.32,593.822 821.5,601C 825.675,604.528 829.008,608.695 831.5,613.5C 830.784,616.684 828.784,618.184 825.5,618C 828.364,621.946 828.031,625.612 824.5,629C 833.686,627.169 841.186,630.003 847,637.5C 847.495,639.473 847.662,641.473 847.5,643.5 Z M 847.5,643.5 C 847.728,645.355 847.061,646.188 845.5,646C 846.066,645.005 846.733,644.172 847.5,643.5 Z M 661.5,1055.5 C 656.581,1052.67 651.247,1051.83 645.5,1053C 637.056,1054.93 628.722,1057.26 620.5,1060C 611.34,1068.66 602.674,1077.83 594.5,1087.5C 593.277,1088.61 591.944,1088.78 590.5,1088C 593.704,1085.13 596.537,1081.96 599,1078.5C 599.363,1052.86 598.53,1027.19 596.5,1001.5C 596.707,990.097 597.707,978.764 599.5,967.5C 598.973,964.419 598.14,961.419 597,958.5C 593.459,953.204 590.292,947.704 587.5,942C 579.581,939.572 571.581,937.905 563.5,937C 565.314,934.521 566.981,932.021 568.5,929.5C 568.116,931.665 568.783,933.332 570.5,934.5C 582.31,939.525 591.144,936.192 597,924.5C 598.016,914.864 598.516,905.198 598.5,895.5C 598.408,869.823 597.908,844.156 597,818.5C 596.313,816.445 595.146,814.779 593.5,813.5C 591.548,815.533 589.382,815.866 587,814.5C 585.832,810.494 584.665,806.494 583.5,802.5C 585.101,797.316 585.934,791.982 586,786.5C 587.452,783.986 588.618,781.32 589.5,778.5C 589.833,778.833 590.167,779.167 590.5,779.5C 588.805,782.67 588.305,786.004 589,789.5C 592.091,791.424 594.258,794.09 595.5,797.5C 596.378,792.749 597.545,788.083 599,783.5C 599.112,759.824 598.612,736.158 597.5,712.5C 599.557,703.5 599.223,694.5 596.5,685.5C 596.833,684.833 597.167,684.167 597.5,683.5C 599.167,683.167 600.833,682.833 602.5,682.5C 623.51,684.918 644.51,687.418 665.5,690C 685.161,698.739 702.661,710.572 718,725.5C 722.763,731.36 726.763,737.693 730,744.5C 731.122,751.449 731.789,758.449 732,765.5C 733.012,769.883 734.179,774.216 735.5,778.5C 736,778.833 736.5,779.167 737,779.5C 738.845,778.244 740.845,777.244 743,776.5C 747.377,778.129 747.544,780.295 743.5,783C 741.064,782.947 738.731,783.113 736.5,783.5C 739.167,786.5 741.833,789.5 744.5,792.5C 742.167,795.167 739.833,795.167 737.5,792.5C 736.914,792.709 736.414,793.043 736,793.5C 734.639,802.858 733.139,812.192 731.5,821.5C 732.5,826.172 733.5,830.838 734.5,835.5C 736.456,834.452 738.456,833.952 740.5,834C 738.517,835.889 736.184,837.222 733.5,838C 732.874,838.75 732.374,839.584 732,840.5C 731.333,864.833 731.333,889.167 732,913.5C 733.07,916.242 734.57,918.742 736.5,921C 734.481,921.45 732.648,922.283 731,923.5C 731.411,935.999 730.911,948.499 729.5,961C 729.063,966.021 730.063,970.688 732.5,975C 737.737,973.779 742.737,974.446 747.5,977C 740.129,975.402 735.963,978.235 735,985.5C 733.989,984.663 732.822,984.33 731.5,984.5C 731.666,989.179 731.499,993.845 731,998.5C 726.163,1006.84 720.83,1014.84 715,1022.5C 708.392,1028.44 701.225,1033.61 693.5,1038C 683.017,1042.41 672.684,1047.08 662.5,1052C 661.663,1053.01 661.33,1054.18 661.5,1055.5 Z M 858.5,773.5 C 856.419,775.9 854.086,776.066 851.5,774C 852.108,773.13 852.941,772.63 854,772.5C 855.44,773.148 856.94,773.481 858.5,773.5 Z M 572.5,923.5 C 572.262,925.404 571.262,926.738 569.5,927.5C 569.738,925.596 570.738,924.262 572.5,923.5 Z M 749.5,978.5 C 752.304,977.888 755.304,977.888 758.5,978.5C 758.719,979.675 758.386,980.675 757.5,981.5C 755.021,979.924 752.354,978.924 749.5,978.5 Z M 662.5,1056.5 C 664.377,1057.66 664.877,1059.33 664,1061.5C 662.991,1059.98 662.491,1058.31 662.5,1056.5 Z M 646.5,1083.5 C 648.151,1082.03 649.985,1080.7 652,1079.5C 666.066,1056.64 666.733,1056.97 654,1080.5C 651.765,1082.2 649.265,1083.2 646.5,1083.5 Z M 637.5,1501.5 C 639.448,1503.79 641.448,1506.12 643.5,1508.5C 642.349,1509.73 641.183,1509.73 640,1508.5C 638.589,1506.35 637.755,1504.02 637.5,1501.5 Z"/></g>
<g><path style="opacity:0.994" fill="#fefefe" d="M 2814.5,601.5 C 2846.42,593.049 2878.75,586.382 2911.5,581.5C 2916.26,584.66 2916.26,588.16 2911.5,592C 2914.61,593.759 2917.94,594.592 2921.5,594.5C 2921.85,591.121 2923.19,588.121 2925.5,585.5C 2924.47,583.639 2922.97,582.305 2921,581.5C 2920.38,580.551 2920.55,579.718 2921.5,579C 2936.14,576.919 2950.64,574.085 2965,570.5C 2966.22,571.272 2967.22,572.272 2968,573.5C 2970.8,571.707 2973.3,569.54 2975.5,567C 2979.81,565.728 2984.15,564.561 2988.5,563.5C 2990.17,564.5 2991.5,565.833 2992.5,567.5C 2993.65,566.855 2994.65,566.022 2995.5,565C 3001.9,563.989 3008.24,562.655 3014.5,561C 3029.08,556.195 3043.75,551.695 3058.5,547.5C 3061.5,547.167 3062.83,548.5 3062.5,551.5C 3060.55,557.077 3058.88,562.744 3057.5,568.5C 3058.64,572.429 3059.48,576.429 3060,580.5C 3061.33,581.833 3062.67,583.167 3064,584.5C 3061.22,576.371 3060.89,568.037 3063,559.5C 3064.56,556.217 3066.73,553.383 3069.5,551C 3071.88,550.444 3074.22,550.61 3076.5,551.5C 3074.48,549.581 3074.14,547.414 3075.5,545C 3079.62,543.795 3083.62,542.295 3087.5,540.5C 3088.88,541 3089.55,542 3089.5,543.5C 3088.96,544.864 3088.79,546.197 3089,547.5C 3091.21,544.922 3093.04,542.089 3094.5,539C 3095.83,538.333 3097.17,538.333 3098.5,539C 3100.37,543.358 3101.87,547.858 3103,552.5C 3106.67,555.5 3110.33,558.5 3114,561.5C 3115.79,565.014 3117.12,568.681 3118,572.5C 3119.12,568.512 3119.78,564.512 3120,560.5C 3112.45,556.622 3107.45,550.622 3105,542.5C 3103.96,537.768 3104.8,533.434 3107.5,529.5C 3113.23,524.973 3119.06,524.639 3125,528.5C 3126.74,522.853 3130.58,519.353 3136.5,518C 3139.88,517.824 3143.22,517.324 3146.5,516.5C 3148.75,512.205 3152.08,509.039 3156.5,507C 3171.94,500.115 3186.94,492.448 3201.5,484C 3209.09,481.647 3216.75,479.814 3224.5,478.5C 3228.08,480.125 3231.75,481.459 3235.5,482.5C 3234.7,480.958 3234.37,479.292 3234.5,477.5C 3231.88,477.768 3229.38,477.435 3227,476.5C 3226.69,474.444 3226.19,472.444 3225.5,470.5C 3227.28,469.016 3229.28,468.016 3231.5,467.5C 3229.65,467.728 3228.81,467.061 3229,465.5C 3247.59,447.246 3265.92,428.579 3284,409.5C 3294.33,392.167 3304.67,374.833 3315,357.5C 3316.91,353.022 3318.08,348.355 3318.5,343.5C 3319.5,343.5 3320.5,343.5 3321.5,343.5C 3319.69,356.254 3319.36,369.088 3320.5,382C 3320.17,404.014 3318,425.847 3314,447.5C 3305.15,473.865 3292.15,497.865 3275,519.5C 3264.26,537.911 3251.59,554.911 3237,570.5C 3233.07,577.426 3228.07,583.426 3222,588.5C 3218.83,595.338 3214.5,601.338 3209,606.5C 3204.35,623.159 3196.19,637.492 3184.5,649.5C 3185.17,651.5 3185.83,653.5 3186.5,655.5C 3183.59,667.825 3177.26,677.992 3167.5,686C 3164.03,686.434 3160.7,685.934 3157.5,684.5C 3157.5,685.5 3157.5,686.5 3157.5,687.5C 3160.5,687.253 3163,688.253 3165,690.5C 3175.24,714.377 3176.07,738.543 3167.5,763C 3177.64,770.449 3181.14,780.283 3178,792.5C 3174.98,798.541 3171.98,804.541 3169,810.5C 3167.22,809.76 3165.38,809.093 3163.5,808.5C 3162.45,809.922 3162.45,811.422 3163.5,813C 3163.1,814.473 3162.43,815.806 3161.5,817C 3165.82,819.636 3170.49,821.469 3175.5,822.5C 3178.94,830.238 3181.77,838.238 3184,846.5C 3187.16,861.629 3190.83,876.629 3195,891.5C 3196.07,897.555 3196.4,903.555 3196,909.5C 3201.78,933.292 3206.61,957.292 3210.5,981.5C 3216.85,980.484 3222.51,981.817 3227.5,985.5C 3229.2,983.959 3231.04,982.625 3233,981.5C 3238.12,984.979 3243.62,987.812 3249.5,990C 3271.4,993.448 3291.73,1001.11 3310.5,1013C 3331.88,1029.38 3351.72,1047.55 3370,1067.5C 3374.53,1073.09 3376.2,1079.42 3375,1086.5C 3372.43,1088.98 3370.93,1091.98 3370.5,1095.5C 3378.52,1096.43 3385.02,1100.1 3390,1106.5C 3395.93,1121.94 3401.26,1137.61 3406,1153.5C 3408.61,1170.98 3411.94,1188.31 3416,1205.5C 3416.79,1218.38 3417.95,1231.21 3419.5,1244C 3419.15,1249.09 3416.48,1250.76 3411.5,1249C 3407.81,1242.45 3403.97,1235.95 3400,1229.5C 3392.95,1221.46 3386.29,1213.12 3380,1204.5C 3377.64,1201.05 3376.97,1197.38 3378,1193.5C 3375.79,1194.75 3373.62,1194.58 3371.5,1193C 3358.87,1175.37 3343.87,1160.04 3326.5,1147C 3319.02,1142.8 3311.02,1140.13 3302.5,1139C 3294.23,1131.06 3287.06,1122.23 3281,1112.5C 3275.22,1106.71 3268.89,1101.71 3262,1097.5C 3262.55,1100.09 3264.05,1102.26 3266.5,1104C 3271.27,1107.14 3275.77,1110.64 3280,1114.5C 3282.11,1118.29 3283.78,1122.29 3285,1126.5C 3285.67,1127.83 3285.67,1129.17 3285,1130.5C 3282.95,1131.89 3280.79,1133.05 3278.5,1134C 3265.49,1134.89 3252.65,1136.72 3240,1139.5C 3240.69,1153.06 3241.85,1166.56 3243.5,1180C 3242.15,1183.68 3241.48,1187.51 3241.5,1191.5C 3243.12,1203.86 3244.95,1216.19 3247,1228.5C 3247.8,1243.05 3247.3,1257.55 3245.5,1272C 3246.45,1289.7 3249.45,1307.03 3254.5,1324C 3256.37,1328.53 3259.03,1332.53 3262.5,1336C 3260.75,1337.29 3258.92,1338.46 3257,1339.5C 3256.43,1343.24 3255.93,1347.07 3255.5,1351C 3257.37,1361.34 3259.87,1371.51 3263,1381.5C 3264.62,1394.18 3265.12,1406.85 3264.5,1419.5C 3268.59,1423.67 3271.09,1428.67 3272,1434.5C 3273.12,1446.8 3273.78,1459.14 3274,1471.5C 3281.29,1494.17 3286.46,1517.34 3289.5,1541C 3289.16,1544.52 3288.66,1548.02 3288,1551.5C 3287.31,1552.36 3286.48,1553.02 3285.5,1553.5C 3281.42,1551.59 3277.76,1549.09 3274.5,1546C 3270.57,1544.17 3266.57,1543.67 3262.5,1544.5C 3267.57,1548.13 3272.4,1552.13 3277,1556.5C 3279.01,1561.69 3280.51,1567.02 3281.5,1572.5C 3282.29,1569.1 3283.29,1565.77 3284.5,1562.5C 3282.64,1561.06 3280.97,1559.39 3279.5,1557.5C 3284.57,1555.91 3288.73,1557.24 3292,1561.5C 3296.53,1574.49 3298.86,1587.82 3299,1601.5C 3297.4,1602.87 3295.57,1603.87 3293.5,1604.5C 3294.94,1607.05 3296.11,1609.72 3297,1612.5C 3297.21,1617.89 3297.71,1623.22 3298.5,1628.5C 3298.01,1629.45 3297.68,1630.45 3297.5,1631.5C 3298.77,1633.94 3300.27,1636.28 3302,1638.5C 3303.63,1647.27 3304.8,1656.11 3305.5,1665C 3304.89,1673.91 3303.73,1682.74 3302,1691.5C 3301.67,1699.83 3301.33,1708.17 3301,1716.5C 3297.86,1727.39 3295.19,1738.39 3293,1749.5C 3292.31,1752.2 3290.81,1754.36 3288.5,1756C 3283.73,1757.58 3279.4,1759.92 3275.5,1763C 3276.33,1763.91 3277.33,1764.58 3278.5,1765C 3281.17,1765.33 3283.83,1765.67 3286.5,1766C 3287.85,1767.57 3288.51,1769.41 3288.5,1771.5C 3285.44,1784.83 3281.28,1797.83 3276,1810.5C 3276.74,1817.48 3275.4,1824.15 3272,1830.5C 3272.08,1837.05 3271.08,1843.38 3269,1849.5C 3268.79,1857.88 3268.12,1866.21 3267,1874.5C 3257,1895.83 3247,1917.17 3237,1938.5C 3227.58,1953.67 3217.92,1968.67 3208,1983.5C 3204.08,1989.43 3199.41,1994.76 3194,1999.5C 3187.21,2011.3 3178.55,2021.63 3168,2030.5C 3158.4,2046.1 3145.57,2058.27 3129.5,2067C 3127.76,2067.61 3126.76,2066.95 3126.5,2065C 3128.41,2059.08 3131.91,2054.25 3137,2050.5C 3141.33,2043.5 3145.67,2036.5 3150,2029.5C 3160.13,2007.09 3169.46,1984.43 3178,1961.5C 3179.99,1957.01 3182.82,1953.18 3186.5,1950C 3184.05,1945.26 3183.88,1940.42 3186,1935.5C 3189.13,1927.59 3191.96,1919.59 3194.5,1911.5C 3193.95,1894.23 3195.29,1877.07 3198.5,1860C 3198,1857.52 3197.67,1855.02 3197.5,1852.5C 3198.22,1841.18 3198.72,1829.85 3199,1818.5C 3199.11,1816.15 3200.28,1814.65 3202.5,1814C 3201.3,1813.1 3200.47,1811.93 3200,1810.5C 3199.04,1805.88 3198.38,1801.21 3198,1796.5C 3197.49,1776.47 3196.49,1756.47 3195,1736.5C 3189.13,1721.01 3185.79,1705.01 3185,1688.5C 3177.82,1676.15 3171.16,1663.48 3165,1650.5C 3153.74,1632.23 3140.58,1615.4 3125.5,1600C 3117.65,1595.82 3110.65,1590.48 3104.5,1584C 3093,1578.5 3082,1572.16 3071.5,1565C 3069.02,1563.06 3068.85,1560.9 3071,1558.5C 3073.59,1556.45 3076.09,1554.28 3078.5,1552C 3093.83,1542 3109.17,1532 3124.5,1522C 3121.02,1521.51 3120.52,1520.01 3123,1517.5C 3125.44,1513.55 3128.94,1511.55 3133.5,1511.5C 3133.82,1513.72 3133.16,1515.56 3131.5,1517C 3132.78,1517.68 3133.95,1517.52 3135,1516.5C 3138.2,1520.09 3142.03,1522.26 3146.5,1523C 3132.71,1515.04 3129.55,1503.88 3137,1489.5C 3139.72,1488.11 3142.56,1486.94 3145.5,1486C 3148.88,1480.95 3153.21,1476.95 3158.5,1474C 3155.29,1473.3 3152.12,1473.46 3149,1474.5C 3146.98,1473.97 3146.15,1472.63 3146.5,1470.5C 3145.5,1470.5 3144.5,1470.5 3143.5,1470.5C 3143.41,1473.74 3144.08,1476.74 3145.5,1479.5C 3142.84,1478.36 3140.17,1478.19 3137.5,1479C 3135.74,1476.07 3134.58,1472.9 3134,1469.5C 3129.77,1427.59 3123.77,1385.92 3116,1344.5C 3113.34,1326.24 3111.34,1307.91 3110,1289.5C 3109.22,1287.71 3108.05,1286.21 3106.5,1285C 3090.13,1280.32 3073.79,1275.32 3057.5,1270C 3055.3,1268.3 3052.97,1266.8 3050.5,1265.5C 3049.19,1267.83 3047.19,1269.16 3044.5,1269.5C 3025.71,1265.74 3007.55,1260.07 2990,1252.5C 2985.14,1254.08 2980.48,1253.75 2976,1251.5C 2975.33,1248.83 2974.67,1246.17 2974,1243.5C 2973.34,1245.86 2972.84,1248.36 2972.5,1251C 2965.83,1251.67 2959.17,1251.67 2952.5,1251C 2950.88,1248.83 2950.05,1246.33 2950,1243.5C 2946.87,1241.91 2946.03,1239.58 2947.5,1236.5C 2945.77,1233.71 2944.61,1230.71 2944,1227.5C 2943.22,1230.76 2943.38,1233.93 2944.5,1237C 2943.42,1240.4 2942.58,1243.9 2942,1247.5C 2941.38,1249.12 2940.38,1250.45 2939,1251.5C 2938.69,1268.78 2936.36,1285.78 2932,1302.5C 2931.21,1314.89 2929.88,1327.22 2928,1339.5C 2925.52,1347.13 2921.52,1353.8 2916,1359.5C 2915.22,1360.73 2914.72,1362.06 2914.5,1363.5C 2917.14,1366.93 2919.97,1370.26 2923,1373.5C 2923.91,1389.9 2925.58,1406.24 2928,1422.5C 2930.45,1428.63 2932.12,1434.96 2933,1441.5C 2935.91,1444.99 2938.58,1448.66 2941,1452.5C 2941.67,1451.5 2941.67,1450.5 2941,1449.5C 2939.44,1447.56 2938.28,1445.39 2937.5,1443C 2937.83,1442.5 2938.17,1442 2938.5,1441.5C 2946.23,1446.41 2951.06,1453.41 2953,1462.5C 2955,1464.5 2957,1466.5 2959,1468.5C 2961.07,1475.61 2962.9,1482.77 2964.5,1490C 2964.41,1491.11 2964.08,1492.11 2963.5,1493C 2959.63,1495.15 2956.13,1494.65 2953,1491.5C 2950.52,1479.62 2948.69,1479.79 2947.5,1492C 2944.62,1492.68 2941.79,1492.52 2939,1491.5C 2937.17,1494.2 2934.67,1495.04 2931.5,1494C 2914.86,1490.34 2898.52,1485.67 2882.5,1480C 2866.4,1471.63 2849.74,1464.63 2832.5,1459C 2827.56,1456.39 2822.9,1453.39 2818.5,1450C 2806.96,1448.15 2795.63,1445.49 2784.5,1442C 2783.13,1439.62 2783.47,1437.45 2785.5,1435.5C 2780.41,1433.59 2779.25,1430.26 2782,1425.5C 2783.81,1422.72 2785.98,1420.22 2788.5,1418C 2786.6,1416.4 2784.6,1414.9 2782.5,1413.5C 2782.17,1413.83 2781.83,1414.17 2781.5,1414.5C 2782.5,1415.83 2783.5,1417.17 2784.5,1418.5C 2784.02,1419.48 2783.36,1420.31 2782.5,1421C 2779.12,1421.45 2775.79,1422.12 2772.5,1423C 2771.09,1423.37 2770.09,1424.2 2769.5,1425.5C 2772.12,1425.6 2774.79,1425.93 2777.5,1426.5C 2779.26,1430.64 2779.92,1434.81 2779.5,1439C 2774.28,1439.06 2769.61,1437.4 2765.5,1434C 2762.5,1433.67 2759.5,1433.33 2756.5,1433C 2755.07,1432.53 2753.9,1431.7 2753,1430.5C 2750.4,1422.8 2746.9,1415.63 2742.5,1409C 2745.52,1398.78 2750.02,1389.28 2756,1380.5C 2759.78,1367.27 2765.45,1354.94 2773,1343.5C 2773.62,1340.96 2773.12,1338.63 2771.5,1336.5C 2772.15,1332.88 2772.31,1329.21 2772,1325.5C 2774.56,1323.09 2777.56,1321.42 2781,1320.5C 2781.33,1316.83 2781.67,1313.17 2782,1309.5C 2782.45,1307.48 2783.28,1305.65 2784.5,1304C 2781.4,1301.19 2779.73,1297.69 2779.5,1293.5C 2783.24,1293.54 2783.41,1292.87 2780,1291.5C 2779.76,1282.16 2780.09,1272.83 2781,1263.5C 2784.07,1244.15 2787.4,1224.82 2791,1205.5C 2791.81,1202.55 2793.14,1199.89 2795,1197.5C 2798.73,1194.28 2801.89,1190.61 2804.5,1186.5C 2801.9,1187.41 2799.06,1187.41 2796,1186.5C 2796.71,1164.55 2799.71,1142.89 2805,1121.5C 2808.83,1118.82 2809.67,1115.32 2807.5,1111C 2809.97,1092.11 2812.8,1073.27 2816,1054.5C 2819.65,1040.57 2822.98,1026.57 2826,1012.5C 2828.57,1009.6 2830.74,1006.43 2832.5,1003C 2830.25,1001.25 2828.58,999.088 2827.5,996.5C 2828.64,993.713 2829.64,990.88 2830.5,988C 2829.54,984.529 2829.38,981.029 2830,977.5C 2834.93,951.645 2838.93,925.645 2842,899.5C 2845.97,880.943 2849.31,862.277 2852,843.5C 2852.45,841.481 2853.28,839.648 2854.5,838C 2852.84,835.367 2852.34,832.534 2853,829.5C 2853.74,828.426 2854.74,827.759 2856,827.5C 2859.56,829.055 2862.56,831.388 2865,834.5C 2865.26,831.983 2864.59,829.65 2863,827.5C 2858.5,825.147 2856,821.481 2855.5,816.5C 2857.99,803.221 2860.16,789.887 2862,776.5C 2863.87,769.211 2866.7,762.378 2870.5,756C 2867.8,755.135 2866.46,753.301 2866.5,750.5C 2868.44,740.52 2870.27,730.52 2872,720.5C 2873.37,716.927 2874.87,713.427 2876.5,710C 2875.7,699.678 2873.86,689.511 2871,679.5C 2865.07,671.552 2859.07,663.552 2853,655.5C 2839.97,641.475 2826.64,627.809 2813,614.5C 2811.44,612.557 2810.28,610.39 2809.5,608C 2810.99,605.683 2812.65,603.516 2814.5,601.5 Z M 3255.5,444.5 C 3255.39,446.783 3254.56,448.783 3253,450.5C 3249.62,453.383 3246.12,456.049 3242.5,458.5C 3246.1,453.226 3250.44,448.559 3255.5,444.5 Z M 3235.5,465.5 C 3234.71,467.104 3233.38,467.771 3231.5,467.5C 3232.51,466.326 3233.85,465.66 3235.5,465.5 Z M 3235.5,482.5 C 3237.79,482.595 3239.79,483.262 3241.5,484.5C 3239.1,484.741 3237.1,484.074 3235.5,482.5 Z M 3076.5,551.5 C 3077.63,552.122 3078.63,552.955 3079.5,554C 3077.51,554.519 3076.51,553.686 3076.5,551.5 Z M 3124.5,583.5 C 3126.67,585.5 3129,587.334 3131.5,589C 3127.34,589.579 3125.01,587.745 3124.5,583.5 Z M 2873.5,667.5 C 2874.74,663.1 2877.4,660.267 2881.5,659C 2882.17,660 2882.83,661 2883.5,662C 2880.09,663.743 2876.76,665.577 2873.5,667.5 Z M 2877.5,742.5 C 2881.65,746.924 2880.82,750.591 2875,753.5C 2874.73,749.595 2875.56,745.928 2877.5,742.5 Z M 3018.5,1148.5 C 3014.4,1148.06 3013.4,1146.06 3015.5,1142.5C 3015.49,1136.29 3012.49,1132.46 3006.5,1131C 3001.67,1128.94 2996.67,1128.27 2991.5,1129C 2990.95,1129.92 2990.29,1130.76 2989.5,1131.5C 2985.26,1129.14 2980.76,1127.48 2976,1126.5C 2974.37,1127.29 2972.87,1128.29 2971.5,1129.5C 2968.83,1128.5 2966.17,1127.5 2963.5,1126.5C 2963.02,1129.12 2961.69,1131.12 2959.5,1132.5C 2958.2,1131.91 2957.37,1130.91 2957,1129.5C 2956.82,1126.46 2955.99,1123.62 2954.5,1121C 2959.76,1112.69 2961.43,1103.69 2959.5,1094C 2962.01,1090.14 2963.85,1085.98 2965,1081.5C 2967.93,1065.31 2970.76,1049.14 2973.5,1033C 2972.74,1031.49 2971.74,1030.15 2970.5,1029C 2971.67,1027.83 2972.83,1026.67 2974,1025.5C 2975.83,1012.53 2977.33,999.526 2978.5,986.5C 2975.31,987.964 2971.98,988.798 2968.5,989C 2970.37,985.946 2973.03,984.446 2976.5,984.5C 2976.58,983.07 2976.25,981.736 2975.5,980.5C 2973.83,979.5 2972.5,978.167 2971.5,976.5C 2973.54,974.724 2975.7,973.057 2978,971.5C 2984.54,958.304 2987.87,944.304 2988,929.5C 2989.33,924.833 2990.67,920.167 2992,915.5C 2994.57,898.091 2997.57,880.758 3001,863.5C 3007.47,844.936 3013.64,826.269 3019.5,807.5C 3020.48,807.977 3021.31,808.643 3022,809.5C 3023.67,814.833 3025.33,820.167 3027,825.5C 3031.9,856.229 3037.23,886.895 3043,917.5C 3045.28,921.553 3048.78,923.886 3053.5,924.5C 3051.26,925.474 3048.92,925.808 3046.5,925.5C 3047.37,943.183 3048.54,960.85 3050,978.5C 3053.5,992.31 3055.83,1006.31 3057,1020.5C 3057.79,1024.29 3059.79,1027.29 3063,1029.5C 3063.19,1033.19 3064.02,1036.69 3065.5,1040C 3063.52,1043.93 3063.02,1048.1 3064,1052.5C 3065.37,1063.06 3067.7,1073.39 3071,1083.5C 3071.33,1092.17 3071.67,1100.83 3072,1109.5C 3072.47,1111.25 3073.14,1112.91 3074,1114.5C 3074.58,1123.75 3075.41,1132.91 3076.5,1142C 3075.89,1142.87 3075.06,1143.37 3074,1143.5C 3062.25,1141.85 3050.75,1139.19 3039.5,1135.5C 3033.75,1135.09 3031.25,1137.75 3032,1143.5C 3032.05,1140.39 3030.89,1137.89 3028.5,1136C 3025.39,1134.22 3022.05,1133.05 3018.5,1132.5C 3016.73,1132.43 3015.73,1133.27 3015.5,1135C 3017.55,1138.01 3017.88,1141.18 3016.5,1144.5C 3016.75,1146.07 3017.42,1147.41 3018.5,1148.5 Z M 3214.5,993.5 C 3215.04,993.56 3215.38,993.893 3215.5,994.5C 3215.06,1001.47 3211.72,1003.64 3205.5,1001C 3209.25,999.416 3212.25,996.916 3214.5,993.5 Z M 3201.5,998.5 C 3199.19,998.993 3196.86,999.326 3194.5,999.5C 3196.71,997.688 3199.05,997.355 3201.5,998.5 Z M 3211.5,1084.5 C 3214.19,1086.11 3217.19,1086.94 3220.5,1087C 3229.57,1087.09 3238.57,1087.75 3247.5,1089C 3245.76,1089.65 3244.1,1089.48 3242.5,1088.5C 3240.94,1089.07 3239.44,1089.74 3238,1090.5C 3238,1093.83 3238,1097.17 3238,1100.5C 3237.5,1102.33 3236.33,1103.5 3234.5,1104C 3230.45,1103.37 3226.45,1102.21 3222.5,1100.5C 3219.06,1101.97 3215.56,1103.31 3212,1104.5C 3209.94,1103.94 3208.78,1102.61 3208.5,1100.5C 3210.14,1095.27 3211.14,1089.94 3211.5,1084.5 Z M 2810.5,1121.5 C 2812.26,1122.07 2813.92,1122.91 2815.5,1124C 2812.74,1125.08 2811.07,1124.24 2810.5,1121.5 Z M 2786.5,1296.5 C 2789.9,1298.66 2791.74,1301.66 2792,1305.5C 2788.69,1303.37 2786.86,1300.37 2786.5,1296.5 Z M 2792.5,1307.5 C 2794.46,1309.42 2795.3,1311.76 2795,1314.5C 2793.1,1312.56 2792.26,1310.23 2792.5,1307.5 Z M 2795.5,1315.5 C 2797.83,1318.14 2798.49,1321.14 2797.5,1324.5C 2795.67,1323.75 2794,1322.75 2792.5,1321.5C 2793.32,1320.61 2794.32,1320.28 2795.5,1320.5C 2795.5,1318.83 2795.5,1317.17 2795.5,1315.5 Z"/></g>
<g><path style="opacity:0.682" fill="#f8f8f8" d="M 661.5,510.5 C 665.241,509.599 667.241,510.932 667.5,514.5C 664.122,515.109 662.122,513.776 661.5,510.5 Z"/></g>
<g><path style="opacity:0.799" fill="#ececec" d="M 2814.5,601.5 C 2811.4,601.092 2809.07,602.259 2807.5,605C 2804.35,606.035 2801.68,605.368 2799.5,603C 2800.17,602.333 2800.83,601.667 2801.5,601C 2805.06,600.402 2808.56,599.569 2812,598.5C 2813.75,598.748 2814.58,599.748 2814.5,601.5 Z"/></g>
<g><path style="opacity:0.992" fill="#fefefe" d="M 1199.5,658.5 C 1198.25,656.661 1198.25,654.828 1199.5,653C 1197.87,653.195 1196.21,653.195 1194.5,653C 1192,651.334 1189.67,649.5 1187.5,647.5C 1187.67,646.508 1187.34,645.842 1186.5,645.5C 1185.57,643.978 1184.4,642.645 1183,641.5C 1178.25,640.538 1174.08,638.538 1170.5,635.5C 1172.17,635.167 1173.83,634.833 1175.5,634.5C 1187.51,635.76 1199.51,637.093 1211.5,638.5C 1215.72,636.958 1219.72,637.458 1223.5,640C 1235.16,641.445 1246.83,641.612 1258.5,640.5C 1250.84,657.477 1242.34,674.144 1233,690.5C 1229.26,712.055 1226.26,733.722 1224,755.5C 1222.11,759.672 1219.95,763.672 1217.5,767.5C 1221.21,771.705 1225.04,775.705 1229,779.5C 1231,786.828 1233,794.162 1235,801.5C 1238.42,829.811 1243.42,857.811 1250,885.5C 1255.24,919.765 1259.91,954.098 1264,988.5C 1273.68,1014.38 1275.34,1040.38 1269,1066.5C 1266.38,1065.79 1263.88,1064.79 1261.5,1063.5C 1260.29,1065.48 1260.29,1067.48 1261.5,1069.5C 1266.18,1071.84 1270.51,1074.67 1274.5,1078C 1276.7,1080.23 1278.53,1082.73 1280,1085.5C 1282.87,1105.02 1286.7,1124.35 1291.5,1143.5C 1289.39,1142.6 1287.39,1141.76 1285.5,1141C 1286.57,1147.87 1288.4,1154.37 1291,1160.5C 1290.44,1161.02 1289.77,1161.36 1289,1161.5C 1286.9,1159.34 1284.73,1159.17 1282.5,1161C 1285,1161.89 1287.33,1163.05 1289.5,1164.5C 1297.05,1175.7 1300.38,1188.03 1299.5,1201.5C 1296.61,1201.78 1295.11,1200.45 1295,1197.5C 1293.81,1199.04 1293.48,1200.71 1294,1202.5C 1296.92,1203.53 1299.08,1205.36 1300.5,1208C 1299.57,1210.82 1297.57,1211.98 1294.5,1211.5C 1294.68,1216.04 1294.34,1220.54 1293.5,1225C 1295.42,1233.44 1297.76,1241.77 1300.5,1250C 1296.99,1257.22 1294.15,1264.72 1292,1272.5C 1290.5,1274 1289,1275.5 1287.5,1277C 1282,1279.25 1277,1282.25 1272.5,1286C 1276.89,1289.05 1281.22,1289.05 1285.5,1286C 1288.49,1281.65 1292.49,1278.98 1297.5,1278C 1296.57,1277.61 1295.91,1276.95 1295.5,1276C 1297.21,1271.05 1299.21,1266.21 1301.5,1261.5C 1303.33,1260.72 1304.83,1261.38 1306,1263.5C 1308.22,1270.48 1306.06,1275.31 1299.5,1278C 1306.36,1279.53 1311.53,1283.36 1315,1289.5C 1331.38,1314.26 1346.71,1339.6 1361,1365.5C 1361.77,1365.36 1362.44,1365.02 1363,1364.5C 1366.9,1354.12 1369.57,1343.46 1371,1332.5C 1377.62,1311.81 1385.12,1291.48 1393.5,1271.5C 1399.89,1270.21 1406.23,1268.71 1412.5,1267C 1419.21,1261.96 1424.88,1255.96 1429.5,1249C 1434.51,1245.49 1439.84,1242.49 1445.5,1240C 1454.02,1238.16 1462.19,1235.33 1470,1231.5C 1482.02,1235.43 1493.85,1239.76 1505.5,1244.5C 1505.35,1243.45 1505.52,1242.45 1506,1241.5C 1506.86,1243.09 1507.53,1244.75 1508,1246.5C 1511.71,1264.66 1516.04,1282.66 1521,1300.5C 1533.76,1320.1 1545.93,1340.1 1557.5,1360.5C 1552.81,1360.96 1548.47,1362.46 1544.5,1365C 1532.53,1366.88 1520.53,1367.38 1508.5,1366.5C 1503.86,1366.34 1499.36,1367.01 1495,1368.5C 1492.86,1367.73 1490.7,1367.07 1488.5,1366.5C 1482.39,1368.43 1476.23,1369.09 1470,1368.5C 1449.67,1372.28 1429.17,1373.45 1408.5,1372C 1405.94,1370.73 1403.6,1371.39 1401.5,1374C 1386.51,1373.78 1371.51,1373.78 1356.5,1374C 1347.43,1376.47 1338.43,1379.13 1329.5,1382C 1318.64,1382.88 1307.8,1384.05 1297,1385.5C 1293.22,1385.46 1289.55,1384.79 1286,1383.5C 1283.67,1383.82 1281.84,1384.98 1280.5,1387C 1273.03,1388.35 1265.53,1389.52 1258,1390.5C 1255.62,1390.52 1253.45,1389.85 1251.5,1388.5C 1250.64,1390.2 1249.3,1391.36 1247.5,1392C 1243.91,1392.79 1240.41,1392.62 1237,1391.5C 1230.75,1394.82 1224.25,1395.32 1217.5,1393C 1213.93,1388.04 1212.93,1388.37 1214.5,1394C 1213.33,1395.75 1211.66,1396.75 1209.5,1397C 1183.73,1402.45 1157.73,1406.29 1131.5,1408.5C 1132.61,1401.67 1134.44,1395 1137,1388.5C 1141.82,1377 1146.82,1365.67 1152,1354.5C 1153.81,1351.98 1155.64,1351.98 1157.5,1354.5C 1157.52,1338.42 1162.86,1324.42 1173.5,1312.5C 1177.65,1311.59 1181.32,1309.92 1184.5,1307.5C 1182.48,1313.8 1183.48,1314.63 1187.5,1310C 1185.98,1307.57 1184.98,1304.9 1184.5,1302C 1182.38,1300.88 1180.54,1299.38 1179,1297.5C 1179.94,1299.67 1180.77,1302.01 1181.5,1304.5C 1176.24,1304.05 1173.74,1301.05 1174,1295.5C 1172.96,1290.76 1173.8,1286.43 1176.5,1282.5C 1175.16,1277.45 1173.66,1272.45 1172,1267.5C 1171.45,1264.15 1171.62,1260.81 1172.5,1257.5C 1171.5,1253.5 1170.5,1249.5 1169.5,1245.5C 1170.95,1241.28 1170.45,1237.28 1168,1233.5C 1167.35,1224.15 1165.85,1214.98 1163.5,1206C 1159.7,1205.23 1155.87,1204.73 1152,1204.5C 1131.72,1206.68 1111.39,1208.01 1091,1208.5C 1086.74,1208.46 1082.74,1207.79 1079,1206.5C 1077.79,1208.05 1076.29,1209.22 1074.5,1210C 1070.72,1210.91 1066.89,1211.41 1063,1211.5C 1054.51,1210.9 1046.01,1210.4 1037.5,1210C 1035.04,1207.59 1033.21,1204.76 1032,1201.5C 1026.82,1199.16 1024.32,1195.16 1024.5,1189.5C 1019.62,1189.21 1014.79,1188.55 1010,1187.5C 1006.88,1188.83 1003.71,1189.66 1000.5,1190C 995.361,1184.87 991.361,1179.04 988.5,1172.5C 987.026,1173.44 986.026,1174.77 985.5,1176.5C 989.288,1181.24 992.955,1186.08 996.5,1191C 1001.17,1191.33 1005.83,1191.67 1010.5,1192C 1019.17,1194.98 1025.84,1200.31 1030.5,1208C 1028.04,1212.96 1024.37,1216.79 1019.5,1219.5C 1020.99,1222.29 1021.65,1225.29 1021.5,1228.5C 1020.01,1256.27 1015.68,1283.43 1008.5,1310C 1012.32,1319.66 1011.32,1328.99 1005.5,1338C 1018.19,1353.88 1030.02,1370.38 1041,1387.5C 1044,1393.5 1047,1399.5 1050,1405.5C 1054.5,1411.17 1059,1416.83 1063.5,1422.5C 1058.03,1424.08 1052.69,1425.91 1047.5,1428C 1037.48,1428.39 1027.48,1429.05 1017.5,1430C 1010.79,1433.01 1003.79,1435.01 996.5,1436C 986.15,1436.86 975.817,1437.86 965.5,1439C 955.572,1441.65 945.572,1443.98 935.5,1446C 903.714,1449.63 872.381,1455.63 841.5,1464C 834.472,1464.67 827.472,1464.51 820.5,1463.5C 820.5,1464.83 820.5,1466.17 820.5,1467.5C 813.662,1468.89 806.995,1470.89 800.5,1473.5C 797.918,1473.25 797.085,1471.92 798,1469.5C 819.383,1442.45 840.383,1415.12 861,1387.5C 863.654,1379.89 866.154,1372.22 868.5,1364.5C 868.833,1364.17 869.167,1363.83 869.5,1363.5C 872.489,1370.06 874.822,1369.56 876.5,1362C 875.5,1360.33 874.5,1358.67 873.5,1357C 874.607,1349.34 877.107,1342.18 881,1335.5C 889.578,1326.92 898.745,1319.08 908.5,1312C 911.696,1310.38 914.863,1310.55 918,1312.5C 921.254,1310.06 923.421,1306.89 924.5,1303C 927.726,1301.8 931.059,1301.3 934.5,1301.5C 934.5,1299.83 934.5,1298.17 934.5,1296.5C 929.38,1297.06 925.046,1299.23 921.5,1303C 915.014,1304.54 908.681,1306.54 902.5,1309C 896.671,1307.91 890.838,1307.41 885,1307.5C 884.333,1303.5 884.333,1299.5 885,1295.5C 893.738,1261.81 900.404,1227.81 905,1193.5C 905.687,1187.87 907.187,1182.54 909.5,1177.5C 908.425,1174.56 908.259,1171.56 909,1168.5C 911.041,1167.58 913.208,1167.24 915.5,1167.5C 916.463,1170.83 915.797,1174 913.5,1177C 915.956,1177.95 917.956,1177.45 919.5,1175.5C 918.375,1172.54 917.375,1169.54 916.5,1166.5C 912.62,1165.46 910.953,1162.96 911.5,1159C 912.831,1150.19 913.998,1141.36 915,1132.5C 915.799,1128.24 917.632,1124.57 920.5,1121.5C 921.799,1122.09 922.632,1123.09 923,1124.5C 925.592,1123.02 927.925,1123.35 930,1125.5C 930.853,1129.47 931.519,1133.47 932,1137.5C 935.687,1143.94 937.354,1150.94 937,1158.5C 938.364,1159.26 939.531,1158.76 940.5,1157C 939.639,1142.84 938.306,1128.67 936.5,1114.5C 936.667,1111.17 936.833,1107.83 937,1104.5C 940.057,1103.47 940.057,1102.14 937,1100.5C 935.292,1094 933.125,1087.66 930.5,1081.5C 932.426,1073.61 933.593,1065.61 934,1057.5C 935.395,1052.26 938.228,1047.93 942.5,1044.5C 941.278,1042.02 939.278,1041.02 936.5,1041.5C 936.859,1039.63 937.859,1038.13 939.5,1037C 944.755,1033.75 949.422,1029.75 953.5,1025C 960.833,1020.67 968.167,1016.33 975.5,1012C 969.068,1013.2 962.734,1015.03 956.5,1017.5C 952.295,1017.07 951.462,1015.07 954,1011.5C 955.214,1009.95 956.714,1008.78 958.5,1008C 954.711,1008.24 951.377,1009.74 948.5,1012.5C 950.226,1014.23 951.559,1016.23 952.5,1018.5C 948.69,1025.95 942.857,1029.95 935,1030.5C 934.068,1018.49 935.735,1006.82 940,995.5C 940.333,989.833 940.667,984.167 941,978.5C 945.48,955.149 950.146,931.816 955,908.5C 953.988,892.96 957.488,878.794 965.5,866C 965.321,862.014 964.988,858.014 964.5,854C 966.663,834.179 970.496,814.679 976,795.5C 980.512,790.469 984.012,784.802 986.5,778.5C 988.861,777.224 991.028,777.558 993,779.5C 995.592,776.238 998.759,773.738 1002.5,772C 994.757,773.523 987.924,771.689 982,766.5C 980.699,740.69 978.033,715.023 974,689.5C 965.971,677.445 958.971,664.778 953,651.5C 947.609,644.441 942.609,637.107 938,629.5C 932.536,625.279 927.536,620.612 923,615.5C 920.994,612.464 920.16,609.131 920.5,605.5C 924.24,606.719 927.907,608.219 931.5,610C 945.479,611.284 959.479,612.284 973.5,613C 1004.54,616.628 1035.54,620.628 1066.5,625C 1067.7,626.353 1068.37,628.019 1068.5,630C 1067.4,635.386 1065.56,640.553 1063,645.5C 1062.31,647.568 1062.48,649.568 1063.5,651.5C 1062.36,653.078 1061.86,654.744 1062,656.5C 1062.67,655.833 1063.33,655.167 1064,654.5C 1063.71,648.121 1066.71,644.455 1073,643.5C 1074.63,643.625 1076.13,644.125 1077.5,645C 1079.86,651.002 1084.19,654.335 1090.5,655C 1087.34,652.843 1084.51,650.343 1082,647.5C 1081.78,644.574 1081.28,641.74 1080.5,639C 1081.28,636.26 1081.78,633.426 1082,630.5C 1083.23,629.892 1084.56,629.559 1086,629.5C 1097.84,630.927 1109.68,632.427 1121.5,634C 1135.69,638.132 1150.03,641.799 1164.5,645C 1168.15,645.499 1171.82,645.665 1175.5,645.5C 1175.38,647.484 1176.05,649.15 1177.5,650.5C 1184.78,653.371 1192.11,656.037 1199.5,658.5 Z M 1199.5,658.5 C 1202.23,658.264 1204.56,659.097 1206.5,661C 1203.76,661.295 1201.42,660.462 1199.5,658.5 Z M 1005.5,770.5 C 1006.8,768.901 1008.47,768.401 1010.5,769C 1009.1,770.269 1007.43,770.769 1005.5,770.5 Z M 1108.5,856.5 C 1105.64,862.414 1106.14,868.08 1110,873.5C 1110.81,879.203 1111.81,884.87 1113,890.5C 1115.61,895.435 1118.61,900.102 1122,904.5C 1124.37,912.427 1126.37,920.427 1128,928.5C 1135.67,931.278 1143.17,934.445 1150.5,938C 1150,938.5 1149.5,939 1149,939.5C 1142.81,937.268 1136.64,934.935 1130.5,932.5C 1125.77,933.592 1123.11,936.592 1122.5,941.5C 1125.91,952.536 1127.41,963.87 1127,975.5C 1128.57,979.55 1129.74,983.717 1130.5,988C 1128.92,996.739 1129.76,1005.24 1133,1013.5C 1132.6,1027.41 1134.1,1041.08 1137.5,1054.5C 1138.87,1054.66 1140.21,1054.49 1141.5,1054C 1143.31,1051.6 1145.64,1049.93 1148.5,1049C 1157.47,1046.34 1166.47,1043.84 1175.5,1041.5C 1175.14,1043.37 1174.14,1044.87 1172.5,1046C 1167.38,1049.45 1162.55,1053.29 1158,1057.5C 1157.21,1060.47 1156.54,1063.47 1156,1066.5C 1152.44,1067.41 1149.28,1069.58 1146.5,1073C 1145.03,1073.6 1144.03,1073.1 1143.5,1071.5C 1145.3,1068.71 1145.8,1065.71 1145,1062.5C 1143.21,1060.77 1141.04,1060.1 1138.5,1060.5C 1137.12,1071.22 1137.46,1081.88 1139.5,1092.5C 1115.86,1094.3 1092.2,1095.8 1068.5,1097C 1061.44,1098.85 1054.44,1100.52 1047.5,1102C 1051.86,1072.3 1055.69,1042.47 1059,1012.5C 1062.54,986.569 1066.71,960.736 1071.5,935C 1069.06,925.902 1068.89,916.736 1071,907.5C 1072.72,898.667 1075.06,890.001 1078,881.5C 1081.56,857.284 1086.06,833.284 1091.5,809.5C 1094.2,814.236 1096.37,819.236 1098,824.5C 1099.37,832.336 1101.37,840.003 1104,847.5C 1106.08,849.652 1108.58,851.152 1111.5,852C 1110.6,853.652 1109.6,855.152 1108.5,856.5 Z M 1182.5,1037.5 C 1184.65,1033.56 1186.31,1029.4 1187.5,1025C 1204.62,1013.78 1206.12,1014.95 1192,1028.5C 1189.83,1032.51 1186.66,1035.51 1182.5,1037.5 Z M 1259.5,1062.5 C 1246.58,1059.18 1233.58,1056.18 1220.5,1053.5C 1215.31,1053.1 1211.64,1055.26 1209.5,1060C 1207.26,1060.98 1204.93,1061.48 1202.5,1061.5C 1204.81,1059.36 1207.31,1057.36 1210,1055.5C 1211.61,1052.23 1213.61,1049.23 1216,1046.5C 1217.56,1048.36 1219.39,1049.86 1221.5,1051C 1228.43,1052.52 1235.43,1053.52 1242.5,1054C 1248.49,1056.37 1254.16,1059.21 1259.5,1062.5 Z M 944.5,1107.5 C 953.417,1107.46 960.084,1111.29 964.5,1119C 963.874,1119.75 963.374,1120.58 963,1121.5C 962.394,1118.45 960.894,1115.95 958.5,1114C 954.551,1111.91 950.384,1110.41 946,1109.5C 944.97,1109.16 944.47,1108.5 944.5,1107.5 Z M 968.5,1134.5 C 966.456,1133.97 964.789,1132.8 963.5,1131C 965.772,1131.08 967.438,1132.24 968.5,1134.5 Z M 1030.5,1183.5 C 1031.39,1181.39 1032.56,1179.39 1034,1177.5C 1034.39,1180.3 1033.22,1182.3 1030.5,1183.5 Z M 974.5,1292.5 C 972.335,1292.88 970.668,1292.22 969.5,1290.5C 970.32,1288.89 971.654,1288.22 973.5,1288.5C 973.433,1289.96 973.766,1291.29 974.5,1292.5 Z M 1259.5,1291.5 C 1258.54,1294.76 1257.04,1297.76 1255,1300.5C 1249.74,1305.22 1244.57,1310.05 1239.5,1315C 1238.17,1315.67 1236.83,1315.67 1235.5,1315C 1234,1312.67 1232.33,1310.51 1230.5,1308.5C 1233.01,1309.93 1235.68,1310.43 1238.5,1310C 1239.65,1306.54 1241.32,1303.37 1243.5,1300.5C 1246.34,1299.03 1249.34,1297.86 1252.5,1297C 1254.86,1295.16 1257.2,1293.32 1259.5,1291.5 Z M 998.5,1304.5 C 993.464,1303.15 988.798,1300.98 984.5,1298C 988.599,1298.7 992.599,1300.03 996.5,1302C 997.381,1302.71 998.047,1303.54 998.5,1304.5 Z M 1216.5,1301.5 C 1220.6,1303.05 1224.6,1304.88 1228.5,1307C 1225.74,1307.58 1223.08,1307.25 1220.5,1306C 1218.25,1305.25 1216.92,1303.75 1216.5,1301.5 Z M 1179.5,1318.5 C 1178.64,1321.91 1176.64,1323.25 1173.5,1322.5C 1175.15,1320.67 1177.15,1319.34 1179.5,1318.5 Z M 1157.5,1354.5 C 1159.09,1355.64 1159.42,1356.97 1158.5,1358.5C 1157.57,1357.31 1157.24,1355.98 1157.5,1354.5 Z"/></g>
<g><path style="opacity:0.799" fill="#f7f7f7" d="M 1669.5,617.5 C 1674.32,617.327 1676.32,619.661 1675.5,624.5C 1670.44,624.462 1668.44,622.128 1669.5,617.5 Z"/></g>
<g><path style="opacity:0.8" fill="#f7f7f7" d="M 1230.5,621.5 C 1234.17,622.751 1237.84,622.751 1241.5,621.5C 1242.73,622.651 1242.73,623.817 1241.5,625C 1236.4,627.631 1232.74,626.464 1230.5,621.5 Z"/></g>
<g><path style="opacity:0.593" fill="#f2f2f2" d="M 1395.5,627.5 C 1399.23,627.177 1402.89,627.511 1406.5,628.5C 1402.54,629.66 1398.54,629.827 1394.5,629C 1395.06,628.617 1395.39,628.117 1395.5,627.5 Z"/></g>
<g><path style="opacity:0.72" fill="#ebebeb" d="M 2487.5,640.5 C 2489.6,640.201 2491.6,640.534 2493.5,641.5C 2490.82,642.88 2487.98,643.88 2485,644.5C 2483.94,644.37 2483.11,643.87 2482.5,643C 2484.31,642.243 2485.98,641.41 2487.5,640.5 Z"/></g>
<g><path style="opacity:0.7" fill="#ebebeb" d="M 1309.5,641.5 C 1311.17,641.5 1312.83,641.5 1314.5,641.5C 1314.68,645.192 1313.01,647.192 1309.5,647.5C 1309.5,645.5 1309.5,643.5 1309.5,641.5 Z"/></g>
<g><path style="opacity:0.992" fill="#fefefe" d="M 1696.5,1005.5 C 1692.58,999.067 1688.42,992.733 1684,986.5C 1681.73,981.36 1680.06,976.027 1679,970.5C 1677.71,968.208 1676.04,966.208 1674,964.5C 1672.83,959.913 1673.16,955.247 1675,950.5C 1678.28,944.892 1681.94,939.558 1686,934.5C 1687.74,931.691 1688.91,928.691 1689.5,925.5C 1682.36,925.13 1677.86,928.463 1676,935.5C 1674.99,936.337 1673.82,936.67 1672.5,936.5C 1672.53,931.243 1671.86,926.076 1670.5,921C 1669.84,902.658 1670.5,884.324 1672.5,866C 1672.16,859.799 1671.5,853.632 1670.5,847.5C 1670.15,844.029 1671.48,841.529 1674.5,840C 1672.51,839.426 1671.01,838.259 1670,836.5C 1669.33,827.167 1669.33,817.833 1670,808.5C 1670.9,806.632 1672.4,805.632 1674.5,805.5C 1677.13,806.553 1679.8,807.053 1682.5,807C 1679.66,805.08 1676.66,803.413 1673.5,802C 1672.3,801.097 1671.47,799.931 1671,798.5C 1669.64,784.856 1669.31,771.189 1670,757.5C 1670.64,756.391 1671.14,755.225 1671.5,754C 1668.8,746.709 1669.13,739.543 1672.5,732.5C 1671.3,728.801 1669.13,725.801 1666,723.5C 1655.61,697.015 1640.94,673.348 1622,652.5C 1621.52,651.552 1621.35,650.552 1621.5,649.5C 1632.25,649.186 1642.92,649.853 1653.5,651.5C 1658.04,650.09 1662.71,649.423 1667.5,649.5C 1678.15,650.277 1688.82,650.611 1699.5,650.5C 1700.17,653.907 1702.34,655.24 1706,654.5C 1707.5,654.333 1709,654.167 1710.5,654C 1707.83,653.667 1705.17,653.333 1702.5,653C 1701.16,651.174 1701.66,650.007 1704,649.5C 1739.08,652.536 1774.25,654.369 1809.5,655C 1817.45,656.491 1825.45,657.658 1833.5,658.5C 1831.19,661.975 1828.69,665.308 1826,668.5C 1823.07,675.805 1820.23,683.139 1817.5,690.5C 1816.09,691.806 1814.42,692.64 1812.5,693C 1805.6,712.696 1798.1,732.196 1790,751.5C 1789.08,764.425 1786.75,777.092 1783,789.5C 1782.73,807.881 1781.73,826.214 1780,844.5C 1778.88,846.624 1777.38,848.457 1775.5,850C 1778.7,848.854 1780.87,850.021 1782,853.5C 1782.22,875.012 1782.72,896.512 1783.5,918C 1782.87,927.338 1782.2,936.671 1781.5,946C 1782.01,964.535 1782.01,983.035 1781.5,1001.5C 1776.73,1001.37 1776.56,1002.7 1781,1005.5C 1782.04,1008.64 1781.21,1011.14 1778.5,1013C 1780,1013.83 1781.17,1015 1782,1016.5C 1782.17,1019.5 1782.33,1022.5 1782.5,1025.5C 1781.5,1033.01 1781.5,1040.51 1782.5,1048C 1782.08,1052.76 1780.75,1057.26 1778.5,1061.5C 1780.07,1069.74 1781.07,1078.07 1781.5,1086.5C 1781.11,1090.33 1780.11,1094 1778.5,1097.5C 1778.72,1098.94 1779.22,1100.27 1780,1101.5C 1781.05,1114.1 1780.55,1126.6 1778.5,1139C 1779.96,1143.71 1780.62,1148.54 1780.5,1153.5C 1780.38,1174.65 1779.71,1195.82 1778.5,1217C 1779.59,1232.49 1779.76,1247.99 1779,1263.5C 1776.98,1268.14 1773.48,1269.64 1768.5,1268C 1766.6,1266.7 1764.6,1266.03 1762.5,1266C 1765.96,1270.42 1768.8,1275.26 1771,1280.5C 1771.69,1284.55 1771.53,1288.55 1770.5,1292.5C 1768.62,1292.71 1767.28,1293.71 1766.5,1295.5C 1774.04,1306.96 1771.38,1310.8 1758.5,1307C 1750.16,1304.32 1743.16,1299.66 1737.5,1293C 1731.95,1289.48 1725.95,1287.81 1719.5,1288C 1717.17,1289 1715.5,1290.67 1714.5,1293C 1711.58,1294.53 1708.58,1295.86 1705.5,1297C 1703.67,1298.49 1702.83,1300.32 1703,1302.5C 1705.39,1297.89 1709.22,1295.72 1714.5,1296C 1716.56,1291.78 1719.9,1290.45 1724.5,1292C 1732.3,1293.44 1735.8,1297.94 1735,1305.5C 1729.16,1316.09 1720.49,1319.09 1709,1314.5C 1705.88,1316.31 1702.71,1317.98 1699.5,1319.5C 1697.54,1318.92 1696.54,1317.59 1696.5,1315.5C 1697.48,1311.93 1698.64,1308.59 1700,1305.5C 1699.25,1306.13 1698.42,1306.63 1697.5,1307C 1694.33,1307.25 1691.33,1307.42 1688.5,1307.5C 1688.71,1308.09 1689.04,1308.59 1689.5,1309C 1691.81,1309.5 1694.14,1309.66 1696.5,1309.5C 1696.28,1311.79 1695.61,1313.95 1694.5,1316C 1695.26,1321.13 1695.76,1326.3 1696,1331.5C 1696.93,1327.99 1697.76,1324.49 1698.5,1321C 1702.76,1320.06 1706.93,1318.89 1711,1317.5C 1715.55,1321.07 1720.72,1322.57 1726.5,1322C 1727.25,1319.83 1728.09,1317.66 1729,1315.5C 1734.22,1312.73 1737.22,1308.4 1738,1302.5C 1738.72,1301.94 1739.56,1301.61 1740.5,1301.5C 1744.8,1303.65 1749.13,1305.82 1753.5,1308C 1755.32,1310.82 1757.49,1313.32 1760,1315.5C 1761.73,1314.42 1763.56,1314.26 1765.5,1315C 1768.62,1318.82 1772.12,1322.32 1776,1325.5C 1777.96,1335.88 1777.79,1346.21 1775.5,1356.5C 1770.82,1356.97 1766.15,1358.13 1761.5,1360C 1735.38,1360.66 1709.38,1360.33 1683.5,1359C 1677.67,1356.83 1674.67,1352.67 1674.5,1346.5C 1677.52,1346.2 1680.52,1345.7 1683.5,1345C 1687.97,1342.03 1692.31,1338.86 1696.5,1335.5C 1696,1334.5 1695.5,1333.5 1695,1332.5C 1690.19,1335.3 1685.35,1338.13 1680.5,1341C 1677.86,1342.44 1675.19,1342.6 1672.5,1341.5C 1669.41,1337.9 1666.91,1333.9 1665,1329.5C 1661.64,1318.43 1657.31,1307.77 1652,1297.5C 1650.2,1292.29 1649.03,1286.96 1648.5,1281.5C 1649.55,1281.65 1650.55,1281.48 1651.5,1281C 1648.08,1275.58 1643.91,1270.74 1639,1266.5C 1637.41,1263.83 1636.25,1260.99 1635.5,1258C 1635.44,1256.29 1636.11,1254.96 1637.5,1254C 1639.5,1253.67 1641.5,1253.33 1643.5,1253C 1642.6,1251.76 1641.43,1250.93 1640,1250.5C 1636.08,1253.32 1632.42,1252.99 1629,1249.5C 1628.33,1248.5 1628.33,1247.5 1629,1246.5C 1631.47,1245.53 1633.97,1245.37 1636.5,1246C 1639.98,1237.36 1646.31,1232.19 1655.5,1230.5C 1656.76,1227.88 1657.93,1225.22 1659,1222.5C 1663.17,1218.33 1667.33,1214.17 1671.5,1210C 1672.79,1209.51 1674.13,1209.34 1675.5,1209.5C 1675.02,1202.27 1676.02,1195.27 1678.5,1188.5C 1677.53,1183.87 1676.7,1179.21 1676,1174.5C 1676.53,1185.55 1674.86,1196.21 1671,1206.5C 1667.11,1211.05 1662.61,1214.89 1657.5,1218C 1650.97,1227.2 1642.64,1234.2 1632.5,1239C 1630.56,1239.74 1628.73,1239.58 1627,1238.5C 1616.65,1221.8 1607.32,1204.47 1599,1186.5C 1572.65,1126.8 1544.48,1068.13 1514.5,1010.5C 1511.9,1013 1509.4,1013 1507,1010.5C 1507.4,1033.07 1507.23,1055.57 1506.5,1078C 1506.17,1078.17 1505.83,1078.33 1505.5,1078.5C 1498.74,1063.31 1492.24,1047.98 1486,1032.5C 1485.88,1028.01 1484.55,1024.01 1482,1020.5C 1481.67,1027.5 1481.33,1034.5 1481,1041.5C 1479.6,1042.23 1478.1,1042.73 1476.5,1043C 1477.93,1043.47 1479.1,1044.3 1480,1045.5C 1482.61,1052.66 1485.61,1059.66 1489,1066.5C 1494.34,1074.51 1499.17,1082.84 1503.5,1091.5C 1502.56,1092.97 1501.23,1093.97 1499.5,1094.5C 1498.42,1095.36 1498.25,1096.36 1499,1097.5C 1501.04,1098.42 1503.21,1098.76 1505.5,1098.5C 1504.86,1100.76 1503.69,1102.76 1502,1104.5C 1501.63,1108.8 1500.79,1112.96 1499.5,1117C 1500.91,1118.79 1502.75,1119.96 1505,1120.5C 1506.05,1124.29 1504.55,1126.29 1500.5,1126.5C 1501.74,1127.36 1503.07,1128.02 1504.5,1128.5C 1506.79,1136.71 1508.46,1145.04 1509.5,1153.5C 1509.72,1165.49 1509.22,1177.49 1508,1189.5C 1507.29,1191.08 1506.46,1192.58 1505.5,1194C 1501.92,1196.04 1498.42,1198.21 1495,1200.5C 1493.96,1202.75 1492.79,1204.91 1491.5,1207C 1493.59,1207.27 1494.92,1206.27 1495.5,1204C 1496.5,1203.33 1497.5,1203.33 1498.5,1204C 1499.73,1208.06 1502.4,1210.56 1506.5,1211.5C 1507.41,1212.33 1508.08,1213.33 1508.5,1214.5C 1508.74,1222.79 1508.4,1231.13 1507.5,1239.5C 1503.22,1238.86 1499.22,1237.36 1495.5,1235C 1494.83,1233 1494.17,1231 1493.5,1229C 1484.01,1230.67 1475.51,1228.5 1468,1222.5C 1466.86,1219.42 1465.53,1216.42 1464,1213.5C 1465.57,1221.3 1463.4,1227.8 1457.5,1233C 1449.28,1235.41 1441.28,1238.41 1433.5,1242C 1428.01,1246.58 1422.35,1250.91 1416.5,1255C 1414.92,1256.83 1413.59,1258.83 1412.5,1261C 1407.95,1262.21 1403.28,1262.88 1398.5,1263C 1397.35,1264.88 1395.68,1265.72 1393.5,1265.5C 1391.9,1217.55 1390.9,1169.55 1390.5,1121.5C 1390.45,1109.79 1391.12,1098.12 1392.5,1086.5C 1391.04,1077.07 1390.38,1067.57 1390.5,1058C 1391.32,1032 1392.32,1006 1393.5,980C 1392.92,976.944 1392.26,973.944 1391.5,971C 1392.61,967.961 1393.27,964.794 1393.5,961.5C 1391.34,952.065 1391,942.565 1392.5,933C 1391.01,910.351 1390.01,887.684 1389.5,865C 1391.76,850.23 1391.09,835.563 1387.5,821C 1390.06,812.369 1393.06,803.869 1396.5,795.5C 1400.61,792.894 1404.28,789.727 1407.5,786C 1409.47,785.505 1411.47,785.338 1413.5,785.5C 1411.66,782.828 1410.49,779.828 1410,776.5C 1409.63,777.416 1409.13,778.25 1408.5,779C 1400.38,780.519 1393.88,778.019 1389,771.5C 1386.45,763.11 1384.29,754.61 1382.5,746C 1383.79,740.882 1384.29,735.716 1384,730.5C 1382.51,731.747 1381.01,731.747 1379.5,730.5C 1377.48,728.31 1375.64,725.977 1374,723.5C 1365.67,706.167 1357.33,688.833 1349,671.5C 1342.48,663.971 1337.15,655.638 1333,646.5C 1330.18,645.627 1327.68,644.294 1325.5,642.5C 1329.92,643.002 1334.42,643.002 1339,642.5C 1344.8,644.66 1350.8,645.66 1357,645.5C 1392.75,643.959 1428.42,644.959 1464,648.5C 1468.79,647.414 1473.63,647.247 1478.5,648C 1479.38,649.356 1479.71,650.856 1479.5,652.5C 1469.49,652.156 1459.49,651.989 1449.5,652C 1453.41,654.914 1457.58,657.414 1462,659.5C 1466.81,658.574 1471.64,657.741 1476.5,657C 1480.02,653.975 1483.69,651.142 1487.5,648.5C 1490.26,651.154 1492.93,653.988 1495.5,657C 1498.47,657.763 1500.97,659.263 1503,661.5C 1504.97,666.044 1506.64,670.711 1508,675.5C 1520.47,697.923 1530.8,721.256 1539,745.5C 1545.51,756.517 1551.51,767.85 1557,779.5C 1561.03,791.249 1566.03,802.582 1572,813.5C 1574.6,821.803 1577.1,830.137 1579.5,838.5C 1578.02,842.401 1575.35,843.901 1571.5,843C 1577.18,844.206 1582.68,846.039 1588,848.5C 1603.65,878.969 1619.15,909.469 1634.5,940C 1632.81,944.381 1632.31,948.881 1633,953.5C 1634.85,949.205 1637.51,948.538 1641,951.5C 1641.21,954.856 1641.21,958.189 1641,961.5C 1642.33,960.167 1643.67,960.167 1645,961.5C 1646.04,964.405 1647.2,967.239 1648.5,970C 1647.29,971.578 1645.96,971.745 1644.5,970.5C 1643.06,967.95 1641.89,965.284 1641,962.5C 1640.39,965.548 1638.89,968.048 1636.5,970C 1641.53,971.598 1646.03,974.098 1650,977.5C 1653.27,983.712 1656.27,990.046 1659,996.5C 1666.93,1007.35 1673.6,1019.02 1679,1031.5C 1682.79,1038.25 1686.96,1044.75 1691.5,1051C 1693.84,1052.03 1696.18,1052.69 1698.5,1053C 1695.61,1049.72 1693.94,1045.88 1693.5,1041.5C 1695.22,1034.92 1695.72,1028.25 1695,1021.5C 1692,1016.5 1689,1011.5 1686,1006.5C 1684.25,1002.71 1683.75,998.872 1684.5,995C 1685.17,994.333 1685.83,994.333 1686.5,995C 1689.34,999.001 1692.67,1002.5 1696.5,1005.5 Z M 1411.5,799.5 C 1412.56,795.326 1413.56,791.16 1414.5,787C 1413.94,786.617 1413.61,786.117 1413.5,785.5C 1420.49,789.134 1426.16,787.634 1430.5,781C 1433.92,780.899 1437.09,780.066 1440,778.5C 1440.5,778.833 1441,779.167 1441.5,779.5C 1438.7,780.969 1435.7,781.802 1432.5,782C 1426.81,787.347 1422.31,793.514 1419,800.5C 1417.01,796.88 1414.51,796.547 1411.5,799.5 Z M 1404.5,815.5 C 1407.68,815.176 1408.85,816.51 1408,819.5C 1406.58,818.54 1405.08,817.707 1403.5,817C 1404.06,816.617 1404.39,816.117 1404.5,815.5 Z M 1412.5,837.5 C 1415.27,838.723 1417.94,840.223 1420.5,842C 1423.75,843.036 1427.09,843.703 1430.5,844C 1432.33,844.748 1434,845.748 1435.5,847C 1432.24,848.091 1428.91,849.091 1425.5,850C 1424.79,851.255 1423.96,852.421 1423,853.5C 1418.86,848.537 1415.36,843.204 1412.5,837.5 Z M 1570.5,841.5 C 1568.69,841.509 1567.02,841.009 1565.5,840C 1567.67,839.123 1569.34,839.623 1570.5,841.5 Z M 1769.5,857.5 C 1768.78,859.888 1767.11,861.388 1764.5,862C 1761.12,862.824 1757.78,862.657 1754.5,861.5C 1755.31,860.186 1756.31,859.019 1757.5,858C 1761.49,857.501 1765.49,857.334 1769.5,857.5 Z M 1510.5,999.5 C 1512.12,999.787 1513.12,1000.79 1513.5,1002.5C 1508.13,1006.8 1507.13,1005.8 1510.5,999.5 Z M 1696.5,1005.5 C 1699.82,1007.8 1700.16,1010.47 1697.5,1013.5C 1696.52,1010.91 1696.19,1008.25 1696.5,1005.5 Z M 1676.5,1157.5 C 1678.5,1157.83 1680.5,1158.17 1682.5,1158.5C 1681.39,1162.13 1679.23,1165.13 1676,1167.5C 1675.61,1164.15 1675.78,1160.82 1676.5,1157.5 Z M 1417.5,1184.5 C 1417.9,1183.47 1418.56,1183.31 1419.5,1184C 1421.17,1187 1423.5,1189.33 1426.5,1191C 1433.09,1192.7 1439.75,1194.04 1446.5,1195C 1450.11,1195.73 1453.45,1197.07 1456.5,1199C 1456.02,1200.01 1455.85,1201.18 1456,1202.5C 1445.94,1200.72 1435.77,1198.72 1425.5,1196.5C 1423.18,1197 1420.85,1197.33 1418.5,1197.5C 1418.58,1195.07 1419.58,1193.07 1421.5,1191.5C 1420.39,1188.94 1419.06,1186.61 1417.5,1184.5 Z M 1459.5,1206.5 C 1460.83,1206.5 1461.5,1207.17 1461.5,1208.5C 1460.5,1208.17 1459.83,1207.5 1459.5,1206.5 Z"/></g>
<g><path style="opacity:0.598" fill="#e6e6e6" d="M 1967.5,641.5 C 1969.29,641.215 1970.95,641.548 1972.5,642.5C 1970.2,645.29 1968.54,644.956 1967.5,641.5 Z"/></g>
<g><path style="opacity:0.725" fill="#dedede" d="M 2014.5,641.5 C 2016.5,641.5 2018.5,641.5 2020.5,641.5C 2020.5,642.5 2020.5,643.5 2020.5,644.5C 2018.49,645.014 2016.49,645.18 2014.5,645C 2013.32,643.855 2013.32,642.688 2014.5,641.5 Z"/></g>
<g><path style="opacity:0.106" fill="#f1f1f1" d="M 1946.5,641.5 C 1948.34,641.639 1948.67,642.306 1947.5,643.5C 1946.7,643.043 1946.37,642.376 1946.5,641.5 Z"/></g>
<g><path style="opacity:0.924" fill="#e1e1e1" d="M 1950.5,641.5 C 1953.32,641.248 1955.99,641.748 1958.5,643C 1955.5,645 1952.5,645 1949.5,643C 1950.06,642.617 1950.39,642.117 1950.5,641.5 Z"/></g>
<g><path style="opacity:0.28" fill="#f6f6f6" d="M 2073.5,643.5 C 2076.3,642.362 2079.3,642.195 2082.5,643C 2079.52,643.498 2076.52,643.665 2073.5,643.5 Z"/></g>
<g><path style="opacity:0.783" fill="#eaeaea" d="M 1275.5,643.5 C 1278.17,643.5 1280.83,643.5 1283.5,643.5C 1282.1,647.225 1279.44,649.558 1275.5,650.5C 1275.5,648.167 1275.5,645.833 1275.5,643.5 Z"/></g>
<g><path style="opacity:0.809" fill="#f7f7f7" d="M 1186.5,645.5 C 1186.33,646.492 1186.66,647.158 1187.5,647.5C 1184.86,650.072 1182.03,650.072 1179,647.5C 1178.22,645.681 1178.72,644.348 1180.5,643.5C 1182.45,644.372 1184.45,645.039 1186.5,645.5 Z"/></g>
<g><path style="opacity:0.993" fill="#fefefe" d="M 2345.5,1235.5 C 2346.97,1234.93 2348.31,1234.09 2349.5,1233C 2346.83,1231.67 2344.83,1229.67 2343.5,1227C 2341.83,1226.33 2340.17,1226.33 2338.5,1227C 2335.56,1228.71 2332.73,1230.55 2330,1232.5C 2329.23,1232.36 2328.56,1232.02 2328,1231.5C 2326.8,1221.69 2324.8,1212.02 2322,1202.5C 2321.24,1187.17 2320.9,1171.83 2321,1156.5C 2322.82,1155.67 2324.65,1154.84 2326.5,1154C 2322.16,1143.65 2317.82,1133.32 2313.5,1123C 2314.56,1112.79 2315.9,1102.62 2317.5,1092.5C 2316.81,1083.67 2316.14,1074.84 2315.5,1066C 2315.48,1061.06 2316.15,1056.22 2317.5,1051.5C 2315.65,1044.89 2316.65,1038.72 2320.5,1033C 2317.5,1028.82 2315.16,1024.32 2313.5,1019.5C 2315.11,1002.86 2316.44,986.188 2317.5,969.5C 2313.99,957.373 2313.66,945.207 2316.5,933C 2319.2,932.935 2321.36,934.102 2323,936.5C 2324.01,934.975 2324.51,933.308 2324.5,931.5C 2321.88,931.768 2319.38,931.435 2317,930.5C 2314.73,911.869 2314.23,893.203 2315.5,874.5C 2314.28,868.218 2312.61,862.051 2310.5,856C 2311.36,847.504 2312.19,839.004 2313,830.5C 2315.97,827.735 2318.63,828.068 2321,831.5C 2320.56,829.095 2320.73,826.595 2321.5,824C 2321.28,821.056 2320.61,818.223 2319.5,815.5C 2318.15,816.95 2316.48,817.617 2314.5,817.5C 2316.64,804.519 2318.81,791.519 2321,778.5C 2321.31,777.692 2321.81,777.025 2322.5,776.5C 2324.02,780.089 2326.69,781.922 2330.5,782C 2328.57,779.742 2327.07,777.242 2326,774.5C 2325.26,773.359 2324.43,773.359 2323.5,774.5C 2322.34,769.533 2322.17,764.533 2323,759.5C 2328.39,748.998 2332.39,737.998 2335,726.5C 2337.27,725.065 2339.27,725.398 2341,727.5C 2347.57,717.593 2354.9,708.259 2363,699.5C 2364.76,702.02 2366.76,704.353 2369,706.5C 2370.76,703.392 2371.59,700.059 2371.5,696.5C 2369.02,696.949 2367.02,696.283 2365.5,694.5C 2371.72,687.553 2379.38,682.886 2388.5,680.5C 2392.23,681.267 2392.23,682.434 2388.5,684C 2389,684.5 2389.5,685 2390,685.5C 2392.95,681.163 2397.12,678.663 2402.5,678C 2408.17,677.333 2413.83,677.333 2419.5,678C 2427.36,682.925 2435.36,687.258 2443.5,691C 2438.34,686.586 2432.68,682.919 2426.5,680C 2425.23,678.204 2425.23,676.371 2426.5,674.5C 2424.1,673.915 2422.1,672.748 2420.5,671C 2420.82,669.347 2421.82,668.347 2423.5,668C 2436.5,662.903 2449.83,661.57 2463.5,664C 2464.39,667.266 2466.55,668.766 2470,668.5C 2477.21,667.786 2484.38,666.786 2491.5,665.5C 2493.14,665.941 2494.81,666.274 2496.5,666.5C 2505.51,661.661 2515.18,658.828 2525.5,658C 2529.64,654.117 2534.64,652.284 2540.5,652.5C 2560.14,654.045 2579.8,655.212 2599.5,656C 2602.17,657 2602.17,658 2599.5,659C 2596.49,659.301 2593.49,659.135 2590.5,658.5C 2590.5,659.833 2590.5,661.167 2590.5,662.5C 2592.75,662.915 2594.91,663.582 2597,664.5C 2601.95,662.963 2606.95,661.629 2612,660.5C 2620.73,667.297 2630.57,671.13 2641.5,672C 2633.03,668.931 2624.7,665.598 2616.5,662C 2640.11,664.092 2661.77,671.759 2681.5,685C 2687.59,690.014 2692.09,696.181 2695,703.5C 2704.17,711.325 2711.83,720.325 2718,730.5C 2719.06,734.415 2717.56,736.582 2713.5,737C 2711.81,738.913 2711.31,741.08 2712,743.5C 2712.87,740.606 2714.7,739.439 2717.5,740C 2718.91,743.116 2720.24,746.283 2721.5,749.5C 2713.67,749.832 2706.17,748.165 2699,744.5C 2698.83,744.833 2698.67,745.167 2698.5,745.5C 2700.96,747.455 2703.29,749.622 2705.5,752C 2711.36,752.597 2716.03,755.264 2719.5,760C 2727.32,760.951 2730.65,765.118 2729.5,772.5C 2733.46,782.814 2735.96,793.48 2737,804.5C 2738.05,814.647 2738.89,824.814 2739.5,835C 2740.08,841.374 2738.08,846.707 2733.5,851C 2734.79,855.862 2736.29,860.695 2738,865.5C 2739,870.143 2739.33,874.81 2739,879.5C 2730.73,883.43 2724.9,889.597 2721.5,898C 2722.13,900.135 2722.63,902.302 2723,904.5C 2727.7,898.124 2732.03,891.457 2736,884.5C 2738.56,883.354 2739.89,884.354 2740,887.5C 2740.88,897.162 2741.21,906.828 2741,916.5C 2740.24,919.196 2739.07,921.696 2737.5,924C 2738.5,939.441 2738.34,954.941 2737,970.5C 2734.49,972.174 2731.66,973.174 2728.5,973.5C 2723.06,971.976 2717.73,970.476 2712.5,969C 2714.31,972.134 2716.48,974.968 2719,977.5C 2725.16,976.327 2730.99,977.327 2736.5,980.5C 2735.91,981.799 2734.91,982.632 2733.5,983C 2735.1,984.935 2736.27,987.101 2737,989.5C 2737.4,1000.05 2738.24,1010.55 2739.5,1021C 2738.69,1037.47 2738.19,1053.97 2738,1070.5C 2737.34,1076.32 2735.17,1081.49 2731.5,1086C 2729.8,1086.96 2727.97,1087.46 2726,1087.5C 2723.1,1086.54 2720.27,1085.7 2717.5,1085C 2721.24,1090.44 2726.24,1091.94 2732.5,1089.5C 2734.83,1089.83 2736.17,1091.17 2736.5,1093.5C 2736.03,1095.57 2735.37,1097.57 2734.5,1099.5C 2738.3,1106.86 2740.3,1114.69 2740.5,1123C 2739.23,1136.47 2738.4,1149.97 2738,1163.5C 2733.78,1167.71 2729.61,1172.05 2725.5,1176.5C 2726,1177.52 2726.67,1177.69 2727.5,1177C 2730.53,1172.88 2734.36,1171.38 2739,1172.5C 2739.61,1192.59 2736.94,1212.26 2731,1231.5C 2727.53,1236.48 2724.7,1241.81 2722.5,1247.5C 2720.17,1248.17 2717.83,1248.83 2715.5,1249.5C 2716.58,1249.75 2717.92,1249.92 2719.5,1250C 2721.37,1252.21 2723.54,1254.04 2726,1255.5C 2726.64,1256.61 2727.14,1257.78 2727.5,1259C 2726.72,1261.39 2725.56,1263.56 2724,1265.5C 2721.7,1279.08 2717.03,1291.75 2710,1303.5C 2702.71,1312.58 2695.55,1321.74 2688.5,1331C 2686.5,1331.67 2684.5,1331.67 2682.5,1331C 2675.38,1323.73 2674.88,1324.23 2681,1332.5C 2681.46,1335.57 2681.46,1338.57 2681,1341.5C 2684.07,1342.25 2687.07,1343.25 2690,1344.5C 2695.21,1354.21 2697.21,1364.54 2696,1375.5C 2692.45,1380.77 2689.28,1386.27 2686.5,1392C 2690.86,1396.88 2691.53,1402.21 2688.5,1408C 2691.73,1407.48 2694.56,1405.98 2697,1403.5C 2699.03,1404.52 2700.36,1406.19 2701,1408.5C 2705.81,1424.18 2709.15,1440.18 2711,1456.5C 2717.76,1478.78 2726.09,1500.45 2736,1521.5C 2748.67,1543.51 2762.34,1564.85 2777,1585.5C 2777.92,1589.49 2776.42,1591.99 2772.5,1593C 2774.76,1593.24 2776.93,1593.74 2779,1594.5C 2780.82,1592.58 2781.98,1590.25 2782.5,1587.5C 2791.46,1596.96 2800.62,1606.29 2810,1615.5C 2811.75,1618 2813.25,1620.67 2814.5,1623.5C 2813.97,1624.19 2813.31,1624.69 2812.5,1625C 2813.67,1626.83 2814.83,1628.67 2816,1630.5C 2827.14,1631.95 2834.48,1638.28 2838,1649.5C 2840.3,1651.34 2842.47,1653.17 2844.5,1655C 2844.36,1655.77 2844.02,1656.44 2843.5,1657C 2841.83,1657.67 2840.17,1657.67 2838.5,1657C 2818.85,1645.85 2798.18,1636.85 2776.5,1630C 2770.86,1623.03 2764.53,1616.69 2757.5,1611C 2752.48,1610.88 2747.81,1609.55 2743.5,1607C 2731.87,1600.27 2721.04,1592.44 2711,1583.5C 2709.99,1581.98 2709.49,1580.31 2709.5,1578.5C 2707.14,1578.66 2704.81,1578.5 2702.5,1578C 2680,1560.83 2660.17,1541 2643,1518.5C 2636.33,1507.83 2629.67,1497.17 2623,1486.5C 2619.72,1479.4 2617.06,1472.07 2615,1464.5C 2605.51,1447.02 2596.68,1429.19 2588.5,1411C 2585.1,1410.9 2581.93,1410.07 2579,1408.5C 2580.41,1413.18 2578.91,1416.68 2574.5,1419C 2556.46,1421.34 2538.46,1420.67 2520.5,1417C 2517.53,1415.4 2516.53,1413.07 2517.5,1410C 2516.83,1409.83 2516.17,1409.67 2515.5,1409.5C 2502.26,1413.06 2488.93,1413.22 2475.5,1410C 2462.24,1406.02 2448.91,1402.35 2435.5,1399C 2431.96,1397.39 2428.96,1395.06 2426.5,1392C 2423.42,1391.65 2420.42,1390.99 2417.5,1390C 2408.27,1384.22 2398.61,1379.22 2388.5,1375C 2378.04,1365.53 2368.87,1355.03 2361,1343.5C 2354.26,1331.08 2347.93,1318.41 2342,1305.5C 2339.16,1294.46 2336.16,1283.46 2333,1272.5C 2332.31,1267.64 2332.47,1262.8 2333.5,1258C 2333.14,1255.74 2332.47,1253.57 2331.5,1251.5C 2332.26,1250.28 2333.26,1249.28 2334.5,1248.5C 2333,1245.84 2332,1243.01 2331.5,1240C 2331.44,1238.29 2332.11,1236.96 2333.5,1236C 2337.19,1233.71 2341.19,1232.55 2345.5,1232.5C 2345.5,1233.5 2345.5,1234.5 2345.5,1235.5 Z M 2528.5,658.5 C 2531.78,657.47 2535.11,657.803 2538.5,659.5C 2538.17,659.833 2537.83,660.167 2537.5,660.5C 2534.6,659.358 2531.6,658.692 2528.5,658.5 Z M 2544.5,659.5 C 2548.49,658.834 2552.65,658.501 2557,658.5C 2561.94,658.388 2566.78,658.888 2571.5,660C 2568.63,660.315 2565.8,660.815 2563,661.5C 2556.93,659.963 2550.77,659.297 2544.5,659.5 Z M 2577.5,661.5 C 2582.48,660.126 2586.81,661.459 2590.5,665.5C 2590.33,665.833 2590.17,666.167 2590,666.5C 2586.19,663.845 2582.03,662.178 2577.5,661.5 Z M 2510.5,780.5 C 2513.63,782.154 2516.96,783.321 2520.5,784C 2535.45,786.658 2550.45,788.992 2565.5,791C 2566.23,792.399 2566.73,793.899 2567,795.5C 2573.26,799.756 2578.93,804.756 2584,810.5C 2592.48,827.926 2597.48,846.259 2599,865.5C 2599.51,871.505 2602.67,873.672 2608.5,872C 2611.05,869.558 2614.05,867.892 2617.5,867C 2625.17,866.667 2632.83,866.333 2640.5,866C 2643.17,864.999 2645.51,863.499 2647.5,861.5C 2648.31,861.808 2648.97,862.308 2649.5,863C 2648.94,865.237 2647.94,867.237 2646.5,869C 2633.15,871.24 2619.82,873.574 2606.5,876C 2602.31,877.526 2599.47,880.359 2598,884.5C 2597.09,896.65 2596.59,908.816 2596.5,921C 2596.75,964.564 2597.91,1008.06 2600,1051.5C 2599.57,1055.73 2601.4,1058.23 2605.5,1059C 2606.96,1060.74 2608.29,1062.58 2609.5,1064.5C 2608.67,1065.41 2607.67,1066.08 2606.5,1066.5C 2605.68,1064.89 2605.01,1063.23 2604.5,1061.5C 2599.54,1060.11 2597.21,1062.11 2597.5,1067.5C 2599.03,1089.48 2600.36,1111.48 2601.5,1133.5C 2601.09,1139.77 2600.09,1145.94 2598.5,1152C 2599.04,1158.4 2599.7,1164.73 2600.5,1171C 2598.18,1177.35 2597.84,1183.85 2599.5,1190.5C 2600.05,1194.4 2598.72,1197.4 2595.5,1199.5C 2594.71,1195.85 2594.55,1192.19 2595,1188.5C 2592.33,1181.17 2589.67,1173.83 2587,1166.5C 2579.95,1158.46 2573.29,1150.12 2567,1141.5C 2557.39,1132.43 2547.89,1123.26 2538.5,1114C 2531.82,1108.99 2524.48,1105.65 2516.5,1104C 2515.87,1106.07 2515.53,1108.24 2515.5,1110.5C 2516.53,1122 2517.53,1133.5 2518.5,1145C 2517.67,1149.29 2517.84,1153.46 2519,1157.5C 2519.75,1158.13 2520.58,1158.63 2521.5,1159C 2515.68,1178.35 2520.34,1195.02 2535.5,1209C 2538.47,1209.9 2541.13,1209.4 2543.5,1207.5C 2544.28,1208.74 2545.28,1209.74 2546.5,1210.5C 2547.31,1206.54 2549.14,1203.21 2552,1200.5C 2552.14,1206.09 2550.64,1211.26 2547.5,1216C 2544.84,1215.59 2542.17,1214.76 2539.5,1213.5C 2538.83,1213.83 2538.17,1214.17 2537.5,1214.5C 2541.33,1221.5 2545.17,1228.5 2549,1235.5C 2549.99,1239.13 2550.82,1242.8 2551.5,1246.5C 2551.59,1248.91 2550.59,1250.74 2548.5,1252C 2539.36,1259.63 2529.02,1261.63 2517.5,1258C 2512.58,1255.46 2507.41,1253.62 2502,1252.5C 2500.1,1252.61 2498.44,1253.28 2497,1254.5C 2492.83,1251 2488.67,1247.5 2484.5,1244C 2482.89,1243.28 2481.39,1243.45 2480,1244.5C 2475.39,1234.66 2472.39,1224.32 2471,1213.5C 2466,1204.5 2463.33,1194.83 2463,1184.5C 2462.56,1181.62 2461.56,1178.96 2460,1176.5C 2459.5,1173.85 2459.34,1171.19 2459.5,1168.5C 2456.33,1170 2453.16,1171.67 2450,1173.5C 2448.95,1169.52 2450.29,1166.52 2454,1164.5C 2455.58,1159.59 2456.25,1154.59 2456,1149.5C 2452.75,1143.99 2449.75,1138.32 2447,1132.5C 2445.42,1130.96 2443.59,1129.79 2441.5,1129C 2446.15,1125.36 2449.65,1120.86 2452,1115.5C 2454.77,1108.07 2456.44,1100.4 2457,1092.5C 2457.09,1062.19 2457.09,1031.85 2457,1001.5C 2454.58,985.715 2453.75,969.882 2454.5,954C 2454.3,950.733 2452.97,948.066 2450.5,946C 2453.93,939.812 2454.26,933.479 2451.5,927C 2453.02,919.037 2454.35,911.037 2455.5,903C 2455.6,899.196 2453.93,896.529 2450.5,895C 2445.46,895.095 2440.46,894.928 2435.5,894.5C 2439.9,892.551 2444.07,890.217 2448,887.5C 2449.55,889.146 2451.22,889.479 2453,888.5C 2453.53,885.173 2453.03,882.006 2451.5,879C 2453.2,876.776 2454.2,874.276 2454.5,871.5C 2453.44,864.189 2453.27,856.856 2454,849.5C 2456.87,838.339 2460.21,827.339 2464,816.5C 2466.33,813.5 2468.67,810.5 2471,807.5C 2483.45,797.365 2496.62,788.365 2510.5,780.5 Z M 2330.5,830.5 C 2331.77,831.077 2331.77,831.743 2330.5,832.5C 2329.54,832.03 2329.54,831.363 2330.5,830.5 Z M 2412.5,892.5 C 2416.49,886.448 2421.16,885.948 2426.5,891C 2421.76,890.127 2417.09,890.627 2412.5,892.5 Z M 2724.5,1178.5 C 2723.74,1180.26 2722.4,1181.26 2720.5,1181.5C 2721.26,1179.74 2722.6,1178.74 2724.5,1178.5 Z M 2720.5,1181.5 C 2719.15,1184.7 2716.81,1185.86 2713.5,1185C 2715.58,1183.3 2717.91,1182.13 2720.5,1181.5 Z M 2345.5,1235.5 C 2345.21,1237.42 2344.37,1239.09 2343,1240.5C 2342.75,1238.33 2343.58,1236.67 2345.5,1235.5 Z M 2673.5,1321.5 C 2666.71,1319.26 2659.71,1317.43 2652.5,1316C 2646.99,1312.25 2640.99,1309.58 2634.5,1308C 2636.13,1306.79 2637.96,1305.95 2640,1305.5C 2647.99,1309.58 2656.16,1313.25 2664.5,1316.5C 2668.32,1315.68 2671.32,1313.68 2673.5,1310.5C 2674.31,1310.81 2674.97,1311.31 2675.5,1312C 2672.83,1314.81 2672.17,1317.97 2673.5,1321.5 Z M 2818.5,1636.5 C 2820.08,1637 2820.58,1638 2820,1639.5C 2818.96,1638.76 2818.46,1637.76 2818.5,1636.5 Z"/></g>
<g><path style="opacity:0.993" fill="#fefefe" d="M 2000.5,656.5 C 2005.35,655.84 2009.18,657.507 2012,661.5C 2013.01,660.342 2014.34,659.675 2016,659.5C 2019.65,658.99 2023.32,658.657 2027,658.5C 2039,659.75 2051,659.75 2063,658.5C 2069.06,659.176 2075.06,660.176 2081,661.5C 2090.62,660.125 2100.28,659.459 2110,659.5C 2132.84,659.706 2155.68,659.706 2178.5,659.5C 2178.34,660.873 2178.51,662.207 2179,663.5C 2180.42,662.54 2181.92,661.707 2183.5,661C 2193.8,661.308 2203.8,659.808 2213.5,656.5C 2214.17,656.833 2214.83,657.167 2215.5,657.5C 2212.59,658.704 2210.42,660.704 2209,663.5C 2205.91,676.108 2201.24,688.108 2195,699.5C 2192.22,706.961 2190.22,714.628 2189,722.5C 2180.36,738.017 2179.36,754.017 2186,770.5C 2186.33,774.5 2186.67,778.5 2187,782.5C 2190.97,797.699 2194.3,813.032 2197,828.5C 2197.67,834.5 2197.67,840.5 2197,846.5C 2197.1,850.755 2195.27,852.255 2191.5,851C 2200.79,859.073 2206.29,869.24 2208,881.5C 2210.26,905.382 2213.92,929.049 2219,952.5C 2219.69,959.174 2220.03,965.841 2220,972.5C 2219.67,973.5 2219.33,974.5 2219,975.5C 2215.62,976.871 2212.79,979.038 2210.5,982C 2207.83,982.667 2205.17,982.667 2202.5,982C 2198.36,980.25 2194.36,978.584 2190.5,977C 2194.51,980.443 2194.34,983.609 2190,986.5C 2185.71,981.049 2183.71,982.049 2184,989.5C 2183.05,991.455 2181.71,993.122 2180,994.5C 2179.85,997.571 2179.02,1000.4 2177.5,1003C 2171.15,1004.42 2165.15,1006.75 2159.5,1010C 2150.24,1018.64 2141.24,1027.31 2132.5,1036C 2128.83,1036.33 2125.17,1036.67 2121.5,1037C 2122.46,1038.42 2123.29,1039.92 2124,1041.5C 2127.47,1040.8 2130.97,1040.13 2134.5,1039.5C 2141.71,1031.79 2149.04,1024.29 2156.5,1017C 2167.16,1012.01 2177.16,1006.01 2186.5,999C 2190.93,1000.05 2195.27,1001.39 2199.5,1003C 2196.54,999.884 2194.21,996.384 2192.5,992.5C 2193.07,990.259 2194.4,988.592 2196.5,987.5C 2194.98,985.714 2194.65,983.881 2195.5,982C 2199.6,982.7 2203.6,984.033 2207.5,986C 2211.85,986.245 2216.19,986.245 2220.5,986C 2222.55,986.93 2224.05,988.43 2225,990.5C 2231.01,1017.22 2237.01,1043.88 2243,1070.5C 2243.67,1078.5 2243.67,1086.5 2243,1094.5C 2242.22,1096.29 2241.05,1097.79 2239.5,1099C 2243.97,1108.62 2246.14,1118.79 2246,1129.5C 2248.44,1132.05 2250.11,1135.05 2251,1138.5C 2255.2,1163.19 2259.54,1187.86 2264,1212.5C 2265.06,1234.84 2268.72,1256.84 2275,1278.5C 2279.28,1291.67 2282.94,1305 2286,1318.5C 2294.67,1330.5 2302.34,1343.17 2309,1356.5C 2320.29,1364.12 2327.12,1374.62 2329.5,1388C 2329.47,1390.36 2328.31,1391.86 2326,1392.5C 2320.52,1391.8 2315.02,1390.97 2309.5,1390C 2295.17,1389.67 2280.83,1389.33 2266.5,1389C 2258.61,1388.3 2250.94,1386.63 2243.5,1384C 2241.39,1380.89 2241.55,1377.72 2244,1374.5C 2247.15,1371.59 2250.48,1368.93 2254,1366.5C 2255.54,1358.96 2260.04,1354.46 2267.5,1353C 2266.5,1352.5 2265.5,1352 2264.5,1351.5C 2260.8,1352.77 2257.3,1354.43 2254,1356.5C 2252.72,1364.04 2248.72,1369.71 2242,1373.5C 2240.47,1377.09 2239.14,1380.76 2238,1384.5C 2236.69,1385.57 2235.19,1386.24 2233.5,1386.5C 2212.01,1385.06 2190.68,1382.39 2169.5,1378.5C 2146.18,1382.01 2123.18,1380.51 2100.5,1374C 2099.25,1372.54 2099.25,1371.04 2100.5,1369.5C 2108.45,1362.36 2114.29,1353.69 2118,1343.5C 2125.66,1334.54 2130.66,1324.21 2133,1312.5C 2135.17,1310.88 2137.67,1310.05 2140.5,1310C 2137.03,1308.31 2135.7,1305.47 2136.5,1301.5C 2137.28,1291.83 2138.11,1282.16 2139,1272.5C 2139.37,1271.58 2139.87,1270.75 2140.5,1270C 2145.94,1271.78 2148.94,1269.78 2149.5,1264C 2148.98,1259.91 2147.32,1259.07 2144.5,1261.5C 2143.75,1262.74 2143.42,1264.07 2143.5,1265.5C 2142.5,1265.5 2141.5,1265.5 2140.5,1265.5C 2136.11,1246.72 2132.94,1227.72 2131,1208.5C 2128,1202.19 2126,1195.52 2125,1188.5C 2123.85,1187.26 2122.51,1186.26 2121,1185.5C 2118.59,1186.14 2116.09,1186.47 2113.5,1186.5C 2095.28,1185.41 2077.28,1182.91 2059.5,1179C 2036.26,1178.83 2013.09,1178.33 1990,1177.5C 1988.48,1191.13 1987.48,1204.79 1987,1218.5C 1986.14,1221.71 1984.64,1224.55 1982.5,1227C 1985.46,1230.76 1985.13,1234.09 1981.5,1237C 1983.06,1239 1983.73,1241.33 1983.5,1244C 1982.9,1251.16 1982.4,1258.33 1982,1265.5C 1980.35,1272.46 1976.52,1277.62 1970.5,1281C 1973.21,1282.07 1975.87,1283.24 1978.5,1284.5C 1979.33,1283.5 1980.17,1282.5 1981,1281.5C 1981.35,1285.12 1982.19,1288.62 1983.5,1292C 1983.36,1292.77 1983.02,1293.44 1982.5,1294C 1984.1,1294.27 1985.6,1294.77 1987,1295.5C 1986.16,1301.99 1988.16,1307.33 1993,1311.5C 2004.16,1331.83 2015.83,1351.83 2028,1371.5C 2028.62,1372.45 2028.45,1373.28 2027.5,1374C 2014.26,1372.35 2000.92,1371.35 1987.5,1371C 1982.75,1369.37 1977.91,1368.2 1973,1367.5C 1953.47,1368.87 1933.97,1368.54 1914.5,1366.5C 1905.99,1368.02 1897.66,1367.35 1889.5,1364.5C 1887.06,1361.8 1887.39,1359.3 1890.5,1357C 1891.78,1356.32 1892.95,1356.48 1894,1357.5C 1894.33,1355.83 1894.67,1354.17 1895,1352.5C 1896.77,1351.7 1898.27,1350.53 1899.5,1349C 1897.51,1347.68 1896.35,1345.85 1896,1343.5C 1895.67,1344.83 1895.33,1346.17 1895,1347.5C 1890.83,1351.67 1886.67,1355.83 1882.5,1360C 1876.32,1359.59 1870.15,1359.76 1864,1360.5C 1860.61,1360.09 1857.28,1359.42 1854,1358.5C 1843.2,1360 1832.37,1361.33 1821.5,1362.5C 1815.75,1362.91 1813.25,1360.25 1814,1354.5C 1813.14,1360.55 1810.31,1361.88 1805.5,1358.5C 1806.18,1356.11 1807.01,1353.78 1808,1351.5C 1810.33,1350.5 1812,1348.83 1813,1346.5C 1814.06,1340.33 1815.72,1334.33 1818,1328.5C 1824.11,1318.61 1829.45,1308.27 1834,1297.5C 1836.91,1294.01 1839.58,1290.34 1842,1286.5C 1843.27,1282.01 1844.94,1277.68 1847,1273.5C 1850.07,1270.6 1852.91,1267.6 1855.5,1264.5C 1849.85,1260.41 1849.02,1255.41 1853,1249.5C 1856.05,1245.87 1859.88,1244.7 1864.5,1246C 1865.86,1247.94 1866.7,1250.11 1867,1252.5C 1867.19,1248.96 1868.35,1245.79 1870.5,1243C 1875.47,1241.66 1880.47,1241.16 1885.5,1241.5C 1885.29,1240.91 1884.96,1240.41 1884.5,1240C 1880.35,1239.07 1876.18,1238.24 1872,1237.5C 1870.29,1238.57 1868.79,1239.9 1867.5,1241.5C 1863.47,1239.64 1860.64,1236.64 1859,1232.5C 1858.34,1224.46 1858.67,1216.46 1860,1208.5C 1864.08,1188.11 1868.41,1167.78 1873,1147.5C 1875.68,1138.9 1878.51,1130.4 1881.5,1122C 1879.61,1118.03 1879.11,1113.87 1880,1109.5C 1881,1105.83 1882,1102.17 1883,1098.5C 1883.37,1087.49 1885.37,1076.82 1889,1066.5C 1889.33,1062.17 1889.67,1057.83 1890,1053.5C 1893.83,1033.85 1897.5,1014.18 1901,994.5C 1902.33,987.497 1905.5,981.497 1910.5,976.5C 1907.62,966.617 1908.62,957.117 1913.5,948C 1915.09,947.138 1916.75,946.471 1918.5,946C 1916.5,945.667 1914.5,945.333 1912.5,945C 1915.85,921.548 1920.02,898.048 1925,874.5C 1925.47,873.069 1926.3,871.903 1927.5,871C 1933.32,870.325 1938.98,869.325 1944.5,868C 1940.83,867.667 1937.17,867.333 1933.5,867C 1930.15,865.497 1928.15,862.997 1927.5,859.5C 1931.19,843.21 1934.69,826.877 1938,810.5C 1939.2,807.274 1941.03,804.441 1943.5,802C 1942.89,800.769 1942.56,799.436 1942.5,798C 1943.62,785.311 1945.62,772.811 1948.5,760.5C 1948.43,750.255 1946.93,740.255 1944,730.5C 1936.2,715.892 1929.2,700.892 1923,685.5C 1917.69,676.544 1911.19,668.544 1903.5,661.5C 1902.57,660.311 1902.24,658.978 1902.5,657.5C 1922.96,657.338 1943.46,658.005 1964,659.5C 1969.17,659.314 1973.84,660.647 1978,663.5C 1978.49,662.207 1978.66,660.873 1978.5,659.5C 1986.74,655.645 1993.57,657.312 1999,664.5C 1999.65,662.765 1999.48,661.098 1998.5,659.5C 1999.19,658.482 1999.86,657.482 2000.5,656.5 Z M 2051.5,830.5 C 2052.75,830.577 2053.58,831.244 2054,832.5C 2059.09,860.867 2065.76,888.867 2074,916.5C 2079.38,941.75 2084.38,967.083 2089,992.5C 2090.96,1005.46 2092.63,1018.46 2094,1031.5C 2099.48,1044.7 2107.32,1046.53 2117.5,1037C 2118.17,1036.33 2118.83,1036.33 2119.5,1037C 2114.21,1045.63 2106.88,1047.8 2097.5,1043.5C 2097.33,1048.84 2097.5,1054.18 2098,1059.5C 2100.4,1065.29 2101.9,1071.29 2102.5,1077.5C 2098.4,1077.52 2094.4,1078.19 2090.5,1079.5C 2085.51,1078.62 2080.51,1077.79 2075.5,1077C 2052.51,1076.1 2029.51,1075.43 2006.5,1075C 2000.89,1070.87 1994.89,1070.53 1988.5,1074C 1983.1,1080.03 1976.43,1083.37 1968.5,1084C 1969.75,1082.51 1969.75,1081.01 1968.5,1079.5C 1965.57,1083 1962.57,1083.16 1959.5,1080C 1967.19,1076.74 1975.19,1074.74 1983.5,1074C 1986.04,1072.96 1987.71,1071.13 1988.5,1068.5C 1995.8,1070.13 2001.97,1068.13 2007,1062.5C 2009.37,1050.14 2011.87,1037.8 2014.5,1025.5C 2014.47,1023.97 2013.8,1022.8 2012.5,1022C 2004.97,1020.77 2003.47,1016.94 2008,1010.5C 2008.39,1012.18 2008.23,1013.85 2007.5,1015.5C 2007.7,1017.92 2008.87,1019.59 2011,1020.5C 2018.26,999.195 2022.59,977.195 2024,954.5C 2022.51,953.845 2021.35,952.845 2020.5,951.5C 2026.38,945.943 2028.55,939.276 2027,931.5C 2029.67,915.5 2032.33,899.5 2035,883.5C 2038.29,872.992 2040.96,862.326 2043,851.5C 2045.36,844.237 2048.19,837.237 2051.5,830.5 Z M 1989.5,1057.5 C 1990.27,1053.95 1991.61,1050.62 1993.5,1047.5C 1994.97,1051.9 1993.64,1055.24 1989.5,1057.5 Z M 1886.5,1114.5 C 1886.21,1116.42 1885.37,1118.09 1884,1119.5C 1883.25,1117.07 1884.09,1115.41 1886.5,1114.5 Z M 1905.5,1266.5 C 1909.95,1269.68 1911.78,1274.01 1911,1279.5C 1910.45,1275.84 1908.79,1272.84 1906,1270.5C 1905.51,1269.21 1905.34,1267.87 1905.5,1266.5 Z M 1949.5,1291.5 C 1953.85,1283.65 1960.52,1279.82 1969.5,1280C 1964.81,1280.68 1961.15,1283.01 1958.5,1287C 1955.19,1287.99 1952.19,1289.49 1949.5,1291.5 Z M 1899.5,1330.5 C 1903.96,1324.35 1907.62,1317.68 1910.5,1310.5C 1914.98,1309.19 1917.98,1306.35 1919.5,1302C 1919.33,1300.5 1918.5,1299.67 1917,1299.5C 1914.56,1301.98 1911.73,1303.48 1908.5,1304C 1911.35,1301.32 1914.02,1298.48 1916.5,1295.5C 1915.63,1292.47 1914.13,1289.8 1912,1287.5C 1911.33,1285.83 1911.33,1284.17 1912,1282.5C 1912.33,1283.5 1912.67,1284.5 1913,1285.5C 1917.21,1288.71 1920.71,1292.54 1923.5,1297C 1926.57,1296.98 1929.57,1296.32 1932.5,1295C 1936.5,1294.33 1940.5,1294.33 1944.5,1295C 1939.28,1296.76 1933.94,1298.09 1928.5,1299C 1919.75,1306.3 1912.25,1314.8 1906,1324.5C 1903.96,1326.71 1901.8,1328.71 1899.5,1330.5 Z M 1948.5,1292.5 C 1948.62,1294.95 1949.62,1296.95 1951.5,1298.5C 1949.63,1298.14 1948.13,1297.14 1947,1295.5C 1946.42,1294 1946.92,1293 1948.5,1292.5 Z M 1895.5,1338.5 C 1895.78,1342.59 1895.11,1343.09 1893.5,1340C 1893.84,1338.97 1894.5,1338.47 1895.5,1338.5 Z"/></g>
<g><path style="opacity:0.888" fill="#f8f8f8" d="M 1391.5,779.5 C 1396,779.946 1400.17,781.279 1404,783.5C 1404.67,784.833 1404.67,786.167 1404,787.5C 1401.41,789.211 1398.91,791.045 1396.5,793C 1395.5,793.667 1394.5,793.667 1393.5,793C 1390.63,788.776 1389.97,784.276 1391.5,779.5 Z"/></g>
<g><path style="opacity:0.794" fill="#e3e3e3" d="M 2520.5,812.5 C 2522.95,812.085 2524.28,813.085 2524.5,815.5C 2522.51,820.554 2520.17,820.721 2517.5,816C 2518.36,814.641 2519.36,813.474 2520.5,812.5 Z"/></g>
<g><path style="opacity:0.625" fill="#fbfbfb" d="M 1090.5,820.5 C 1091.59,820.62 1092.25,821.287 1092.5,822.5C 1092.17,823.167 1091.83,823.833 1091.5,824.5C 1090.57,823.311 1090.24,821.978 1090.5,820.5 Z"/></g>
<g><path style="opacity:0.729" fill="#eeeeee" d="M 1108.5,856.5 C 1107.6,857.598 1106.77,857.598 1106,856.5C 1104.73,854.576 1104.73,852.91 1106,851.5C 1107.37,852.91 1108.21,854.577 1108.5,856.5 Z"/></g>
<g><path style="opacity:0.114" fill="#f5f5f5" d="M 2055.5,937.5 C 2057.34,937.639 2057.67,938.306 2056.5,939.5C 2055.7,939.043 2055.37,938.376 2055.5,937.5 Z"/></g>
<g><path style="opacity:0.556" fill="#e4e4e4" d="M 706.5,995.5 C 708.104,996.287 708.771,997.62 708.5,999.5C 707.5,999.5 706.5,999.5 705.5,999.5C 705.433,998.041 705.766,996.708 706.5,995.5 Z"/></g>
<g><path style="opacity:0.795" fill="#f7f7f7" d="M 700.5,1010.5 C 703.076,1010.72 703.91,1012.06 703,1014.5C 700.961,1017.72 698.127,1019.22 694.5,1019C 693.253,1017.54 693.253,1016.04 694.5,1014.5C 697.185,1013.98 699.185,1012.65 700.5,1010.5 Z"/></g>
<g><path style="opacity:0.798" fill="#f0f0f0" d="M 936.5,1041.5 C 934.164,1050.89 931.831,1060.23 929.5,1069.5C 927.262,1060.56 928.429,1051.89 933,1043.5C 933.816,1042.18 934.983,1041.51 936.5,1041.5 Z"/></g>
<g><path style="opacity:0.878" fill="#fafafa" d="M 922.5,1085.5 C 923.5,1085.5 924.5,1085.5 925.5,1085.5C 925.781,1089.19 926.281,1092.85 927,1096.5C 929.063,1101.07 930.897,1105.73 932.5,1110.5C 932.264,1113.98 930.764,1116.65 928,1118.5C 927.228,1118.36 926.561,1118.02 926,1117.5C 925.695,1115.44 925.695,1113.44 926,1111.5C 924.989,1110.66 923.822,1110.33 922.5,1110.5C 922.5,1112.5 922.5,1114.5 922.5,1116.5C 921.5,1116.5 920.5,1116.5 919.5,1116.5C 918.929,1105.98 919.929,1095.65 922.5,1085.5 Z"/></g>
<g><path style="opacity:0.875" fill="#f9f9f9" d="M 3216.5,1089.5 C 3222.28,1090.53 3227.95,1092.03 3233.5,1094C 3237.89,1101.29 3235.89,1103.62 3227.5,1101C 3223.9,1095.92 3219.9,1095.42 3215.5,1099.5C 3214.03,1095.9 3214.37,1092.57 3216.5,1089.5 Z"/></g>
<g><path style="opacity:0.777" fill="#f7f7f7" d="M 3045.5,1116.5 C 3047.5,1116.5 3049.5,1116.5 3051.5,1116.5C 3051.86,1118.91 3050.86,1120.41 3048.5,1121C 3046.15,1121.33 3043.82,1121.17 3041.5,1120.5C 3041.5,1119.5 3041.5,1118.5 3041.5,1117.5C 3043.1,1117.77 3044.43,1117.43 3045.5,1116.5 Z"/></g>
<g><path style="opacity:0.815" fill="#fafafa" d="M 1503.5,1199.5 C 1504.5,1199.5 1505.5,1199.5 1506.5,1199.5C 1506.43,1201.4 1506.77,1203.23 1507.5,1205C 1506.18,1209.66 1504.84,1209.66 1503.5,1205C 1501.96,1204.71 1500.62,1204.04 1499.5,1203C 1500.73,1201.6 1502.06,1200.43 1503.5,1199.5 Z"/></g>
<g><path style="opacity:0.81" fill="#eeeeee" d="M 3338.5,1202.5 C 3340.37,1206.7 3342.03,1211.2 3343.5,1216C 3341.86,1217.95 3340.36,1217.78 3339,1215.5C 3337.28,1211.21 3337.11,1206.87 3338.5,1202.5 Z"/></g>
<g><path style="opacity:0.741" fill="#f2f2f2" d="M 1300.5,1218.5 C 1303.22,1220.76 1304.72,1223.76 1305,1227.5C 1306.29,1232.11 1306.62,1236.78 1306,1241.5C 1302.2,1234.35 1300.37,1226.69 1300.5,1218.5 Z"/></g>
<g><path style="opacity:0.004" fill="#4d4d4d" d="M 1157.5,1288.5 C 1158.53,1288.9 1158.69,1289.56 1158,1290.5C 1157.54,1289.91 1157.37,1289.24 1157.5,1288.5 Z"/></g>
<g><path style="opacity:0.78" fill="#f9f9f9" d="M 1770.5,1292.5 C 1771.86,1291.37 1773.19,1291.37 1774.5,1292.5C 1775.35,1294.41 1775.68,1296.41 1775.5,1298.5C 1772.11,1298.14 1770.45,1296.14 1770.5,1292.5 Z"/></g>
<g><path style="opacity:0.822" fill="#f1f1f1" d="M 2687.5,1333.5 C 2691.26,1334.38 2692.26,1336.55 2690.5,1340C 2684.17,1340.18 2683.17,1338.01 2687.5,1333.5 Z"/></g>
<g><path style="opacity:0.755" fill="#f4f4f4" d="M 2035.5,1349.5 C 2037.17,1349.5 2038.83,1349.5 2040.5,1349.5C 2040.96,1354.24 2039.46,1355.24 2036,1352.5C 2035.52,1351.55 2035.35,1350.55 2035.5,1349.5 Z"/></g>
</svg>
